<svg id="visual" viewBox="0 0 1920 1080" width="1920" height="1080" xmlns="http://www.w3.org/2000/svg" xmlns:xlink="http://www.w3.org/1999/xlink" version="1.1"><g fill="#dedede"><path d="M7 4.1L7 18.1L-7 18.1L-7 4.1L-19.2 -3L-12.2 -15.1L0 -8.1L12.2 -15.1L19.2 -3Z" transform="translate(232 184)"></path><path d="M4 2.3L4 10.4L-4 10.4L-4 2.3L-11.1 -1.7L-7 -8.7L0 -4.7L7 -8.7L11.1 -1.7Z" transform="translate(1562 799)"></path><path d="M4.3 2.5L4.3 11.1L-4.3 11.1L-4.3 2.5L-11.8 -1.8L-7.5 -9.3L0 -5L7.5 -9.3L11.8 -1.8Z" transform="translate(1486 951)"></path><path d="M6.2 3.6L6.2 16L-6.2 16L-6.2 3.6L-17 -2.6L-10.8 -13.4L0 -7.2L10.8 -13.4L17 -2.6Z" transform="translate(636 759)"></path><path d="M5.4 3.1L5.4 13.9L-5.4 13.9L-5.4 3.1L-14.7 -2.3L-9.3 -11.6L0 -6.2L9.3 -11.6L14.7 -2.3Z" transform="translate(1053 698)"></path><path d="M5.9 3.4L5.9 15.3L-5.9 15.3L-5.9 3.4L-16.2 -2.5L-10.3 -12.8L0 -6.9L10.3 -12.8L16.2 -2.5Z" transform="translate(180 677)"></path><path d="M5.4 3.1L5.4 13.9L-5.4 13.9L-5.4 3.1L-14.7 -2.3L-9.3 -11.6L0 -6.2L9.3 -11.6L14.7 -2.3Z" transform="translate(1151 157)"></path><path d="M6.2 3.6L6.2 16L-6.2 16L-6.2 3.6L-17 -2.6L-10.8 -13.4L0 -7.2L10.8 -13.4L17 -2.6Z" transform="translate(1002 86)"></path><path d="M5.1 3L5.1 13.2L-5.1 13.2L-5.1 3L-14 -2.2L-8.9 -11L0 -5.9L8.9 -11L14 -2.2Z" transform="translate(308 743)"></path><path d="M6.5 3.7L6.5 16.7L-6.5 16.7L-6.5 3.7L-17.7 -2.7L-11.2 -14L0 -7.5L11.2 -14L17.7 -2.7Z" transform="translate(1772 905)"></path><path d="M5.1 3L5.1 13.2L-5.1 13.2L-5.1 3L-14 -2.2L-8.9 -11L0 -5.9L8.9 -11L14 -2.2Z" transform="translate(1645 415)"></path><path d="M5.1 3L5.1 13.2L-5.1 13.2L-5.1 3L-14 -2.2L-8.9 -11L0 -5.9L8.9 -11L14 -2.2Z" transform="translate(680 940)"></path><path d="M3.8 2.2L3.8 9.7L-3.8 9.7L-3.8 2.2L-10.3 -1.6L-6.5 -8.1L0 -4.4L6.5 -8.1L10.3 -1.6Z" transform="translate(1669 1066)"></path><path d="M6.2 3.6L6.2 16L-6.2 16L-6.2 3.6L-17 -2.6L-10.8 -13.4L0 -7.2L10.8 -13.4L17 -2.6Z" transform="translate(740 936)"></path><path d="M4.3 2.5L4.3 11.1L-4.3 11.1L-4.3 2.5L-11.8 -1.8L-7.5 -9.3L0 -5L7.5 -9.3L11.8 -1.8Z" transform="translate(1426 298)"></path><path d="M5.1 3L5.1 13.2L-5.1 13.2L-5.1 3L-14 -2.2L-8.9 -11L0 -5.9L8.9 -11L14 -2.2Z" transform="translate(1890 695)"></path><path d="M4.9 2.8L4.9 12.5L-4.9 12.5L-4.9 2.8L-13.3 -2.1L-8.4 -10.5L0 -5.6L8.4 -10.5L13.3 -2.1Z" transform="translate(766 488)"></path><path d="M6.5 3.7L6.5 16.7L-6.5 16.7L-6.5 3.7L-17.7 -2.7L-11.2 -14L0 -7.5L11.2 -14L17.7 -2.7Z" transform="translate(326 593)"></path><path d="M5.4 3.1L5.4 13.9L-5.4 13.9L-5.4 3.1L-14.7 -2.3L-9.3 -11.6L0 -6.2L9.3 -11.6L14.7 -2.3Z" transform="translate(1258 221)"></path><path d="M5.9 3.4L5.9 15.3L-5.9 15.3L-5.9 3.4L-16.2 -2.5L-10.3 -12.8L0 -6.9L10.3 -12.8L16.2 -2.5Z" transform="translate(1210 734)"></path><path d="M4.3 2.5L4.3 11.1L-4.3 11.1L-4.3 2.5L-11.8 -1.8L-7.5 -9.3L0 -5L7.5 -9.3L11.8 -1.8Z" transform="translate(524 206)"></path><path d="M6.5 3.7L6.5 16.7L-6.5 16.7L-6.5 3.7L-17.7 -2.7L-11.2 -14L0 -7.5L11.2 -14L17.7 -2.7Z" transform="translate(844 613)"></path><path d="M5.7 3.3L5.7 14.6L-5.7 14.6L-5.7 3.3L-15.5 -2.4L-9.8 -12.2L0 -6.5L9.8 -12.2L15.5 -2.4Z" transform="translate(899 1054)"></path><path d="M6.2 3.6L6.2 16L-6.2 16L-6.2 3.6L-17 -2.6L-10.8 -13.4L0 -7.2L10.8 -13.4L17 -2.6Z" transform="translate(1270 1058)"></path><path d="M5.7 3.3L5.7 14.6L-5.7 14.6L-5.7 3.3L-15.5 -2.4L-9.8 -12.2L0 -6.5L9.8 -12.2L15.5 -2.4Z" transform="translate(1058 1070)"></path><path d="M5.1 3L5.1 13.2L-5.1 13.2L-5.1 3L-14 -2.2L-8.9 -11L0 -5.9L8.9 -11L14 -2.2Z" transform="translate(850 706)"></path><path d="M5.7 3.3L5.7 14.6L-5.7 14.6L-5.7 3.3L-15.5 -2.4L-9.8 -12.2L0 -6.5L9.8 -12.2L15.5 -2.4Z" transform="translate(1125 530)"></path><path d="M4.3 2.5L4.3 11.1L-4.3 11.1L-4.3 2.5L-11.8 -1.8L-7.5 -9.3L0 -5L7.5 -9.3L11.8 -1.8Z" transform="translate(230 535)"></path><path d="M4.3 2.5L4.3 11.1L-4.3 11.1L-4.3 2.5L-11.8 -1.8L-7.5 -9.3L0 -5L7.5 -9.3L11.8 -1.8Z" transform="translate(1525 762)"></path><path d="M5.9 3.4L5.9 15.3L-5.9 15.3L-5.9 3.4L-16.2 -2.5L-10.3 -12.8L0 -6.9L10.3 -12.8L16.2 -2.5Z" transform="translate(1508 648)"></path><path d="M4.6 2.6L4.6 11.8L-4.6 11.8L-4.6 2.6L-12.5 -1.9L-7.9 -9.9L0 -5.3L7.9 -9.9L12.5 -1.9Z" transform="translate(1372 299)"></path><path d="M4.9 2.8L4.9 12.5L-4.9 12.5L-4.9 2.8L-13.3 -2.1L-8.4 -10.5L0 -5.6L8.4 -10.5L13.3 -2.1Z" transform="translate(1108 819)"></path><path d="M4 2.3L4 10.4L-4 10.4L-4 2.3L-11.1 -1.7L-7 -8.7L0 -4.7L7 -8.7L11.1 -1.7Z" transform="translate(1040 124)"></path><path d="M4 2.3L4 10.4L-4 10.4L-4 2.3L-11.1 -1.7L-7 -8.7L0 -4.7L7 -8.7L11.1 -1.7Z" transform="translate(816 166)"></path><path d="M3.8 2.2L3.8 9.7L-3.8 9.7L-3.8 2.2L-10.3 -1.6L-6.5 -8.1L0 -4.4L6.5 -8.1L10.3 -1.6Z" transform="translate(1838 113)"></path><path d="M5.4 3.1L5.4 13.9L-5.4 13.9L-5.4 3.1L-14.7 -2.3L-9.3 -11.6L0 -6.2L9.3 -11.6L14.7 -2.3Z" transform="translate(947 811)"></path><path d="M4.6 2.6L4.6 11.8L-4.6 11.8L-4.6 2.6L-12.5 -1.9L-7.9 -9.9L0 -5.3L7.9 -9.9L12.5 -1.9Z" transform="translate(524 1072)"></path><path d="M5.9 3.4L5.9 15.3L-5.9 15.3L-5.9 3.4L-16.2 -2.5L-10.3 -12.8L0 -6.9L10.3 -12.8L16.2 -2.5Z" transform="translate(1601 583)"></path><path d="M5.1 3L5.1 13.2L-5.1 13.2L-5.1 3L-14 -2.2L-8.9 -11L0 -5.9L8.9 -11L14 -2.2Z" transform="translate(1259 641)"></path><path d="M3.8 2.2L3.8 9.7L-3.8 9.7L-3.8 2.2L-10.3 -1.6L-6.5 -8.1L0 -4.4L6.5 -8.1L10.3 -1.6Z" transform="translate(1507 535)"></path><path d="M3.8 2.2L3.8 9.7L-3.8 9.7L-3.8 2.2L-10.3 -1.6L-6.5 -8.1L0 -4.4L6.5 -8.1L10.3 -1.6Z" transform="translate(615 201)"></path><path d="M4 2.3L4 10.4L-4 10.4L-4 2.3L-11.1 -1.7L-7 -8.7L0 -4.7L7 -8.7L11.1 -1.7Z" transform="translate(1087 415)"></path><path d="M5.4 3.1L5.4 13.9L-5.4 13.9L-5.4 3.1L-14.7 -2.3L-9.3 -11.6L0 -6.2L9.3 -11.6L14.7 -2.3Z" transform="translate(662 228)"></path><path d="M3.8 2.2L3.8 9.7L-3.8 9.7L-3.8 2.2L-10.3 -1.6L-6.5 -8.1L0 -4.4L6.5 -8.1L10.3 -1.6Z" transform="translate(304 1001)"></path><path d="M4 2.3L4 10.4L-4 10.4L-4 2.3L-11.1 -1.7L-7 -8.7L0 -4.7L7 -8.7L11.1 -1.7Z" transform="translate(506 701)"></path><path d="M6.5 3.7L6.5 16.7L-6.5 16.7L-6.5 3.7L-17.7 -2.7L-11.2 -14L0 -7.5L11.2 -14L17.7 -2.7Z" transform="translate(1896 7)"></path><path d="M4.9 2.8L4.9 12.5L-4.9 12.5L-4.9 2.8L-13.3 -2.1L-8.4 -10.5L0 -5.6L8.4 -10.5L13.3 -2.1Z" transform="translate(946 1026)"></path><path d="M6.2 3.6L6.2 16L-6.2 16L-6.2 3.6L-17 -2.6L-10.8 -13.4L0 -7.2L10.8 -13.4L17 -2.6Z" transform="translate(65 556)"></path><path d="M6.2 3.6L6.2 16L-6.2 16L-6.2 3.6L-17 -2.6L-10.8 -13.4L0 -7.2L10.8 -13.4L17 -2.6Z" transform="translate(410 971)"></path><path d="M5.4 3.1L5.4 13.9L-5.4 13.9L-5.4 3.1L-14.7 -2.3L-9.3 -11.6L0 -6.2L9.3 -11.6L14.7 -2.3Z" transform="translate(1013 922)"></path><path d="M3.8 2.2L3.8 9.7L-3.8 9.7L-3.8 2.2L-10.3 -1.6L-6.5 -8.1L0 -4.4L6.5 -8.1L10.3 -1.6Z" transform="translate(562 464)"></path><path d="M5.1 3L5.1 13.2L-5.1 13.2L-5.1 3L-14 -2.2L-8.9 -11L0 -5.9L8.9 -11L14 -2.2Z" transform="translate(644 1077)"></path><path d="M5.9 3.4L5.9 15.3L-5.9 15.3L-5.9 3.4L-16.2 -2.5L-10.3 -12.8L0 -6.9L10.3 -12.8L16.2 -2.5Z" transform="translate(1846 1069)"></path><path d="M4.9 2.8L4.9 12.5L-4.9 12.5L-4.9 2.8L-13.3 -2.1L-8.4 -10.5L0 -5.6L8.4 -10.5L13.3 -2.1Z" transform="translate(994 563)"></path><path d="M6.5 3.7L6.5 16.7L-6.5 16.7L-6.5 3.7L-17.7 -2.7L-11.2 -14L0 -7.5L11.2 -14L17.7 -2.7Z" transform="translate(1190 795)"></path><path d="M6.5 3.7L6.5 16.7L-6.5 16.7L-6.5 3.7L-17.7 -2.7L-11.2 -14L0 -7.5L11.2 -14L17.7 -2.7Z" transform="translate(1460 89)"></path><path d="M6.2 3.6L6.2 16L-6.2 16L-6.2 3.6L-17 -2.6L-10.8 -13.4L0 -7.2L10.8 -13.4L17 -2.6Z" transform="translate(378 1052)"></path><path d="M5.1 3L5.1 13.2L-5.1 13.2L-5.1 3L-14 -2.2L-8.9 -11L0 -5.9L8.9 -11L14 -2.2Z" transform="translate(1492 285)"></path><path d="M6.5 3.7L6.5 16.7L-6.5 16.7L-6.5 3.7L-17.7 -2.7L-11.2 -14L0 -7.5L11.2 -14L17.7 -2.7Z" transform="translate(1734 688)"></path><path d="M6.5 3.7L6.5 16.7L-6.5 16.7L-6.5 3.7L-17.7 -2.7L-11.2 -14L0 -7.5L11.2 -14L17.7 -2.7Z" transform="translate(1909 899)"></path><path d="M4 2.3L4 10.4L-4 10.4L-4 2.3L-11.1 -1.7L-7 -8.7L0 -4.7L7 -8.7L11.1 -1.7Z" transform="translate(1904 313)"></path><path d="M5.4 3.1L5.4 13.9L-5.4 13.9L-5.4 3.1L-14.7 -2.3L-9.3 -11.6L0 -6.2L9.3 -11.6L14.7 -2.3Z" transform="translate(754 116)"></path><path d="M3.8 2.2L3.8 9.7L-3.8 9.7L-3.8 2.2L-10.3 -1.6L-6.5 -8.1L0 -4.4L6.5 -8.1L10.3 -1.6Z" transform="translate(503 298)"></path><path d="M4.9 2.8L4.9 12.5L-4.9 12.5L-4.9 2.8L-13.3 -2.1L-8.4 -10.5L0 -5.6L8.4 -10.5L13.3 -2.1Z" transform="translate(280 256)"></path><path d="M6.2 3.6L6.2 16L-6.2 16L-6.2 3.6L-17 -2.6L-10.8 -13.4L0 -7.2L10.8 -13.4L17 -2.6Z" transform="translate(614 126)"></path><path d="M5.7 3.3L5.7 14.6L-5.7 14.6L-5.7 3.3L-15.5 -2.4L-9.8 -12.2L0 -6.5L9.8 -12.2L15.5 -2.4Z" transform="translate(1563 1076)"></path><path d="M5.4 3.1L5.4 13.9L-5.4 13.9L-5.4 3.1L-14.7 -2.3L-9.3 -11.6L0 -6.2L9.3 -11.6L14.7 -2.3Z" transform="translate(28 1057)"></path><path d="M4.6 2.6L4.6 11.8L-4.6 11.8L-4.6 2.6L-12.5 -1.9L-7.9 -9.9L0 -5.3L7.9 -9.9L12.5 -1.9Z" transform="translate(155 1057)"></path><path d="M3.8 2.2L3.8 9.7L-3.8 9.7L-3.8 2.2L-10.3 -1.6L-6.5 -8.1L0 -4.4L6.5 -8.1L10.3 -1.6Z" transform="translate(1610 835)"></path><path d="M5.7 3.3L5.7 14.6L-5.7 14.6L-5.7 3.3L-15.5 -2.4L-9.8 -12.2L0 -6.5L9.8 -12.2L15.5 -2.4Z" transform="translate(1017 382)"></path><path d="M6.2 3.6L6.2 16L-6.2 16L-6.2 3.6L-17 -2.6L-10.8 -13.4L0 -7.2L10.8 -13.4L17 -2.6Z" transform="translate(766 990)"></path><path d="M3.8 2.2L3.8 9.7L-3.8 9.7L-3.8 2.2L-10.3 -1.6L-6.5 -8.1L0 -4.4L6.5 -8.1L10.3 -1.6Z" transform="translate(1356 141)"></path><path d="M6.5 3.7L6.5 16.7L-6.5 16.7L-6.5 3.7L-17.7 -2.7L-11.2 -14L0 -7.5L11.2 -14L17.7 -2.7Z" transform="translate(527 47)"></path><path d="M5.1 3L5.1 13.2L-5.1 13.2L-5.1 3L-14 -2.2L-8.9 -11L0 -5.9L8.9 -11L14 -2.2Z" transform="translate(1712 497)"></path><path d="M5.7 3.3L5.7 14.6L-5.7 14.6L-5.7 3.3L-15.5 -2.4L-9.8 -12.2L0 -6.5L9.8 -12.2L15.5 -2.4Z" transform="translate(374 634)"></path><path d="M3.8 2.2L3.8 9.7L-3.8 9.7L-3.8 2.2L-10.3 -1.6L-6.5 -8.1L0 -4.4L6.5 -8.1L10.3 -1.6Z" transform="translate(675 42)"></path><path d="M5.7 3.3L5.7 14.6L-5.7 14.6L-5.7 3.3L-15.5 -2.4L-9.8 -12.2L0 -6.5L9.8 -12.2L15.5 -2.4Z" transform="translate(1505 143)"></path><path d="M3.8 2.2L3.8 9.7L-3.8 9.7L-3.8 2.2L-10.3 -1.6L-6.5 -8.1L0 -4.4L6.5 -8.1L10.3 -1.6Z" transform="translate(1844 983)"></path><path d="M5.1 3L5.1 13.2L-5.1 13.2L-5.1 3L-14 -2.2L-8.9 -11L0 -5.9L8.9 -11L14 -2.2Z" transform="translate(746 330)"></path><path d="M5.4 3.1L5.4 13.9L-5.4 13.9L-5.4 3.1L-14.7 -2.3L-9.3 -11.6L0 -6.2L9.3 -11.6L14.7 -2.3Z" transform="translate(912 261)"></path><path d="M5.7 3.3L5.7 14.6L-5.7 14.6L-5.7 3.3L-15.5 -2.4L-9.8 -12.2L0 -6.5L9.8 -12.2L15.5 -2.4Z" transform="translate(9 192)"></path><path d="M3.8 2.2L3.8 9.7L-3.8 9.7L-3.8 2.2L-10.3 -1.6L-6.5 -8.1L0 -4.4L6.5 -8.1L10.3 -1.6Z" transform="translate(1034 498)"></path><path d="M5.4 3.1L5.4 13.9L-5.4 13.9L-5.4 3.1L-14.7 -2.3L-9.3 -11.6L0 -6.2L9.3 -11.6L14.7 -2.3Z" transform="translate(466 561)"></path><path d="M3.8 2.2L3.8 9.7L-3.8 9.7L-3.8 2.2L-10.3 -1.6L-6.5 -8.1L0 -4.4L6.5 -8.1L10.3 -1.6Z" transform="translate(940 718)"></path><path d="M5.9 3.4L5.9 15.3L-5.9 15.3L-5.9 3.4L-16.2 -2.5L-10.3 -12.8L0 -6.9L10.3 -12.8L16.2 -2.5Z" transform="translate(518 820)"></path><path d="M5.1 3L5.1 13.2L-5.1 13.2L-5.1 3L-14 -2.2L-8.9 -11L0 -5.9L8.9 -11L14 -2.2Z" transform="translate(180 860)"></path><path d="M4 2.3L4 10.4L-4 10.4L-4 2.3L-11.1 -1.7L-7 -8.7L0 -4.7L7 -8.7L11.1 -1.7Z" transform="translate(1399 652)"></path><path d="M6.5 3.7L6.5 16.7L-6.5 16.7L-6.5 3.7L-17.7 -2.7L-11.2 -14L0 -7.5L11.2 -14L17.7 -2.7Z" transform="translate(693 310)"></path><path d="M5.9 3.4L5.9 15.3L-5.9 15.3L-5.9 3.4L-16.2 -2.5L-10.3 -12.8L0 -6.9L10.3 -12.8L16.2 -2.5Z" transform="translate(1551 64)"></path><path d="M6.2 3.6L6.2 16L-6.2 16L-6.2 3.6L-17 -2.6L-10.8 -13.4L0 -7.2L10.8 -13.4L17 -2.6Z" transform="translate(1230 493)"></path><path d="M3.8 2.2L3.8 9.7L-3.8 9.7L-3.8 2.2L-10.3 -1.6L-6.5 -8.1L0 -4.4L6.5 -8.1L10.3 -1.6Z" transform="translate(1325 587)"></path><path d="M5.1 3L5.1 13.2L-5.1 13.2L-5.1 3L-14 -2.2L-8.9 -11L0 -5.9L8.9 -11L14 -2.2Z" transform="translate(309 458)"></path><path d="M5.9 3.4L5.9 15.3L-5.9 15.3L-5.9 3.4L-16.2 -2.5L-10.3 -12.8L0 -6.9L10.3 -12.8L16.2 -2.5Z" transform="translate(1054 331)"></path><path d="M6.2 3.6L6.2 16L-6.2 16L-6.2 3.6L-17 -2.6L-10.8 -13.4L0 -7.2L10.8 -13.4L17 -2.6Z" transform="translate(1693 194)"></path><path d="M4 2.3L4 10.4L-4 10.4L-4 2.3L-11.1 -1.7L-7 -8.7L0 -4.7L7 -8.7L11.1 -1.7Z" transform="translate(1918 490)"></path><path d="M4.3 2.5L4.3 11.1L-4.3 11.1L-4.3 2.5L-11.8 -1.8L-7.5 -9.3L0 -5L7.5 -9.3L11.8 -1.8Z" transform="translate(1787 768)"></path><path d="M5.7 3.3L5.7 14.6L-5.7 14.6L-5.7 3.3L-15.5 -2.4L-9.8 -12.2L0 -6.5L9.8 -12.2L15.5 -2.4Z" transform="translate(535 376)"></path><path d="M5.7 3.3L5.7 14.6L-5.7 14.6L-5.7 3.3L-15.5 -2.4L-9.8 -12.2L0 -6.5L9.8 -12.2L15.5 -2.4Z" transform="translate(1916 377)"></path><path d="M4 2.3L4 10.4L-4 10.4L-4 2.3L-11.1 -1.7L-7 -8.7L0 -4.7L7 -8.7L11.1 -1.7Z" transform="translate(647 613)"></path><path d="M5.1 3L5.1 13.2L-5.1 13.2L-5.1 3L-14 -2.2L-8.9 -11L0 -5.9L8.9 -11L14 -2.2Z" transform="translate(525 553)"></path><path d="M4 2.3L4 10.4L-4 10.4L-4 2.3L-11.1 -1.7L-7 -8.7L0 -4.7L7 -8.7L11.1 -1.7Z" transform="translate(1154 241)"></path><path d="M3.8 2.2L3.8 9.7L-3.8 9.7L-3.8 2.2L-10.3 -1.6L-6.5 -8.1L0 -4.4L6.5 -8.1L10.3 -1.6Z" transform="translate(865 897)"></path><path d="M6.2 3.6L6.2 16L-6.2 16L-6.2 3.6L-17 -2.6L-10.8 -13.4L0 -7.2L10.8 -13.4L17 -2.6Z" transform="translate(850 816)"></path><path d="M6.5 3.7L6.5 16.7L-6.5 16.7L-6.5 3.7L-17.7 -2.7L-11.2 -14L0 -7.5L11.2 -14L17.7 -2.7Z" transform="translate(1114 5)"></path><path d="M5.7 3.3L5.7 14.6L-5.7 14.6L-5.7 3.3L-15.5 -2.4L-9.8 -12.2L0 -6.5L9.8 -12.2L15.5 -2.4Z" transform="translate(503 148)"></path><path d="M3.8 2.2L3.8 9.7L-3.8 9.7L-3.8 2.2L-10.3 -1.6L-6.5 -8.1L0 -4.4L6.5 -8.1L10.3 -1.6Z" transform="translate(1385 197)"></path><path d="M6.2 3.6L6.2 16L-6.2 16L-6.2 3.6L-17 -2.6L-10.8 -13.4L0 -7.2L10.8 -13.4L17 -2.6Z" transform="translate(1765 470)"></path><path d="M5.9 3.4L5.9 15.3L-5.9 15.3L-5.9 3.4L-16.2 -2.5L-10.3 -12.8L0 -6.9L10.3 -12.8L16.2 -2.5Z" transform="translate(647 685)"></path><path d="M5.9 3.4L5.9 15.3L-5.9 15.3L-5.9 3.4L-16.2 -2.5L-10.3 -12.8L0 -6.9L10.3 -12.8L16.2 -2.5Z" transform="translate(1533 907)"></path><path d="M5.4 3.1L5.4 13.9L-5.4 13.9L-5.4 3.1L-14.7 -2.3L-9.3 -11.6L0 -6.2L9.3 -11.6L14.7 -2.3Z" transform="translate(365 291)"></path><path d="M6.2 3.6L6.2 16L-6.2 16L-6.2 3.6L-17 -2.6L-10.8 -13.4L0 -7.2L10.8 -13.4L17 -2.6Z" transform="translate(471 636)"></path><path d="M4.9 2.8L4.9 12.5L-4.9 12.5L-4.9 2.8L-13.3 -2.1L-8.4 -10.5L0 -5.6L8.4 -10.5L13.3 -2.1Z" transform="translate(1639 322)"></path><path d="M6.2 3.6L6.2 16L-6.2 16L-6.2 3.6L-17 -2.6L-10.8 -13.4L0 -7.2L10.8 -13.4L17 -2.6Z" transform="translate(758 857)"></path><path d="M4 2.3L4 10.4L-4 10.4L-4 2.3L-11.1 -1.7L-7 -8.7L0 -4.7L7 -8.7L11.1 -1.7Z" transform="translate(463 873)"></path><path d="M6.2 3.6L6.2 16L-6.2 16L-6.2 3.6L-17 -2.6L-10.8 -13.4L0 -7.2L10.8 -13.4L17 -2.6Z" transform="translate(204 994)"></path><path d="M3.8 2.2L3.8 9.7L-3.8 9.7L-3.8 2.2L-10.3 -1.6L-6.5 -8.1L0 -4.4L6.5 -8.1L10.3 -1.6Z" transform="translate(71 776)"></path><path d="M5.4 3.1L5.4 13.9L-5.4 13.9L-5.4 3.1L-14.7 -2.3L-9.3 -11.6L0 -6.2L9.3 -11.6L14.7 -2.3Z" transform="translate(623 73)"></path><path d="M4.6 2.6L4.6 11.8L-4.6 11.8L-4.6 2.6L-12.5 -1.9L-7.9 -9.9L0 -5.3L7.9 -9.9L12.5 -1.9Z" transform="translate(1032 764)"></path><path d="M6.2 3.6L6.2 16L-6.2 16L-6.2 3.6L-17 -2.6L-10.8 -13.4L0 -7.2L10.8 -13.4L17 -2.6Z" transform="translate(969 167)"></path><path d="M3.8 2.2L3.8 9.7L-3.8 9.7L-3.8 2.2L-10.3 -1.6L-6.5 -8.1L0 -4.4L6.5 -8.1L10.3 -1.6Z" transform="translate(1737 65)"></path><path d="M4.6 2.6L4.6 11.8L-4.6 11.8L-4.6 2.6L-12.5 -1.9L-7.9 -9.9L0 -5.3L7.9 -9.9L12.5 -1.9Z" transform="translate(1524 402)"></path><path d="M6.2 3.6L6.2 16L-6.2 16L-6.2 3.6L-17 -2.6L-10.8 -13.4L0 -7.2L10.8 -13.4L17 -2.6Z" transform="translate(660 838)"></path><path d="M3.8 2.2L3.8 9.7L-3.8 9.7L-3.8 2.2L-10.3 -1.6L-6.5 -8.1L0 -4.4L6.5 -8.1L10.3 -1.6Z" transform="translate(1588 421)"></path><path d="M5.4 3.1L5.4 13.9L-5.4 13.9L-5.4 3.1L-14.7 -2.3L-9.3 -11.6L0 -6.2L9.3 -11.6L14.7 -2.3Z" transform="translate(1383 974)"></path><path d="M6.2 3.6L6.2 16L-6.2 16L-6.2 3.6L-17 -2.6L-10.8 -13.4L0 -7.2L10.8 -13.4L17 -2.6Z" transform="translate(1129 701)"></path><path d="M6.2 3.6L6.2 16L-6.2 16L-6.2 3.6L-17 -2.6L-10.8 -13.4L0 -7.2L10.8 -13.4L17 -2.6Z" transform="translate(590 910)"></path><path d="M6.5 3.7L6.5 16.7L-6.5 16.7L-6.5 3.7L-17.7 -2.7L-11.2 -14L0 -7.5L11.2 -14L17.7 -2.7Z" transform="translate(705 397)"></path><path d="M4.6 2.6L4.6 11.8L-4.6 11.8L-4.6 2.6L-12.5 -1.9L-7.9 -9.9L0 -5.3L7.9 -9.9L12.5 -1.9Z" transform="translate(139 133)"></path><path d="M4 2.3L4 10.4L-4 10.4L-4 2.3L-11.1 -1.7L-7 -8.7L0 -4.7L7 -8.7L11.1 -1.7Z" transform="translate(1329 663)"></path><path d="M5.9 3.4L5.9 15.3L-5.9 15.3L-5.9 3.4L-16.2 -2.5L-10.3 -12.8L0 -6.9L10.3 -12.8L16.2 -2.5Z" transform="translate(853 514)"></path><path d="M4.3 2.5L4.3 11.1L-4.3 11.1L-4.3 2.5L-11.8 -1.8L-7.5 -9.3L0 -5L7.5 -9.3L11.8 -1.8Z" transform="translate(716 516)"></path><path d="M5.1 3L5.1 13.2L-5.1 13.2L-5.1 3L-14 -2.2L-8.9 -11L0 -5.9L8.9 -11L14 -2.2Z" transform="translate(906 417)"></path><path d="M4.9 2.8L4.9 12.5L-4.9 12.5L-4.9 2.8L-13.3 -2.1L-8.4 -10.5L0 -5.6L8.4 -10.5L13.3 -2.1Z" transform="translate(1829 535)"></path><path d="M4.6 2.6L4.6 11.8L-4.6 11.8L-4.6 2.6L-12.5 -1.9L-7.9 -9.9L0 -5.3L7.9 -9.9L12.5 -1.9Z" transform="translate(1045 831)"></path><path d="M5.4 3.1L5.4 13.9L-5.4 13.9L-5.4 3.1L-14.7 -2.3L-9.3 -11.6L0 -6.2L9.3 -11.6L14.7 -2.3Z" transform="translate(250 968)"></path><path d="M6.2 3.6L6.2 16L-6.2 16L-6.2 3.6L-17 -2.6L-10.8 -13.4L0 -7.2L10.8 -13.4L17 -2.6Z" transform="translate(915 575)"></path><path d="M5.9 3.4L5.9 15.3L-5.9 15.3L-5.9 3.4L-16.2 -2.5L-10.3 -12.8L0 -6.9L10.3 -12.8L16.2 -2.5Z" transform="translate(210 406)"></path><path d="M4.9 2.8L4.9 12.5L-4.9 12.5L-4.9 2.8L-13.3 -2.1L-8.4 -10.5L0 -5.6L8.4 -10.5L13.3 -2.1Z" transform="translate(1588 356)"></path><path d="M5.4 3.1L5.4 13.9L-5.4 13.9L-5.4 3.1L-14.7 -2.3L-9.3 -11.6L0 -6.2L9.3 -11.6L14.7 -2.3Z" transform="translate(1669 740)"></path><path d="M5.7 3.3L5.7 14.6L-5.7 14.6L-5.7 3.3L-15.5 -2.4L-9.8 -12.2L0 -6.5L9.8 -12.2L15.5 -2.4Z" transform="translate(68 308)"></path><path d="M4 2.3L4 10.4L-4 10.4L-4 2.3L-11.1 -1.7L-7 -8.7L0 -4.7L7 -8.7L11.1 -1.7Z" transform="translate(868 980)"></path><path d="M5.1 3L5.1 13.2L-5.1 13.2L-5.1 3L-14 -2.2L-8.9 -11L0 -5.9L8.9 -11L14 -2.2Z" transform="translate(20 118)"></path><path d="M3.8 2.2L3.8 9.7L-3.8 9.7L-3.8 2.2L-10.3 -1.6L-6.5 -8.1L0 -4.4L6.5 -8.1L10.3 -1.6Z" transform="translate(152 465)"></path><path d="M6.2 3.6L6.2 16L-6.2 16L-6.2 3.6L-17 -2.6L-10.8 -13.4L0 -7.2L10.8 -13.4L17 -2.6Z" transform="translate(1386 468)"></path><path d="M5.4 3.1L5.4 13.9L-5.4 13.9L-5.4 3.1L-14.7 -2.3L-9.3 -11.6L0 -6.2L9.3 -11.6L14.7 -2.3Z" transform="translate(1617 919)"></path><path d="M4.3 2.5L4.3 11.1L-4.3 11.1L-4.3 2.5L-11.8 -1.8L-7.5 -9.3L0 -5L7.5 -9.3L11.8 -1.8Z" transform="translate(216 479)"></path><path d="M6.5 3.7L6.5 16.7L-6.5 16.7L-6.5 3.7L-17.7 -2.7L-11.2 -14L0 -7.5L11.2 -14L17.7 -2.7Z" transform="translate(1303 894)"></path><path d="M3.8 2.2L3.8 9.7L-3.8 9.7L-3.8 2.2L-10.3 -1.6L-6.5 -8.1L0 -4.4L6.5 -8.1L10.3 -1.6Z" transform="translate(1444 699)"></path><path d="M4.9 2.8L4.9 12.5L-4.9 12.5L-4.9 2.8L-13.3 -2.1L-8.4 -10.5L0 -5.6L8.4 -10.5L13.3 -2.1Z" transform="translate(1806 428)"></path><path d="M4.9 2.8L4.9 12.5L-4.9 12.5L-4.9 2.8L-13.3 -2.1L-8.4 -10.5L0 -5.6L8.4 -10.5L13.3 -2.1Z" transform="translate(1847 794)"></path><path d="M5.1 3L5.1 13.2L-5.1 13.2L-5.1 3L-14 -2.2L-8.9 -11L0 -5.9L8.9 -11L14 -2.2Z" transform="translate(32 669)"></path><path d="M4 2.3L4 10.4L-4 10.4L-4 2.3L-11.1 -1.7L-7 -8.7L0 -4.7L7 -8.7L11.1 -1.7Z" transform="translate(452 818)"></path><path d="M4.3 2.5L4.3 11.1L-4.3 11.1L-4.3 2.5L-11.8 -1.8L-7.5 -9.3L0 -5L7.5 -9.3L11.8 -1.8Z" transform="translate(1878 941)"></path><path d="M5.1 3L5.1 13.2L-5.1 13.2L-5.1 3L-14 -2.2L-8.9 -11L0 -5.9L8.9 -11L14 -2.2Z" transform="translate(366 850)"></path><path d="M6.5 3.7L6.5 16.7L-6.5 16.7L-6.5 3.7L-17.7 -2.7L-11.2 -14L0 -7.5L11.2 -14L17.7 -2.7Z" transform="translate(796 385)"></path><path d="M4.6 2.6L4.6 11.8L-4.6 11.8L-4.6 2.6L-12.5 -1.9L-7.9 -9.9L0 -5.3L7.9 -9.9L12.5 -1.9Z" transform="translate(782 1057)"></path><path d="M3.8 2.2L3.8 9.7L-3.8 9.7L-3.8 2.2L-10.3 -1.6L-6.5 -8.1L0 -4.4L6.5 -8.1L10.3 -1.6Z" transform="translate(1328 85)"></path><path d="M4.9 2.8L4.9 12.5L-4.9 12.5L-4.9 2.8L-13.3 -2.1L-8.4 -10.5L0 -5.6L8.4 -10.5L13.3 -2.1Z" transform="translate(1724 857)"></path><path d="M3.8 2.2L3.8 9.7L-3.8 9.7L-3.8 2.2L-10.3 -1.6L-6.5 -8.1L0 -4.4L6.5 -8.1L10.3 -1.6Z" transform="translate(1347 765)"></path><path d="M3.8 2.2L3.8 9.7L-3.8 9.7L-3.8 2.2L-10.3 -1.6L-6.5 -8.1L0 -4.4L6.5 -8.1L10.3 -1.6Z" transform="translate(1819 712)"></path><path d="M4.9 2.8L4.9 12.5L-4.9 12.5L-4.9 2.8L-13.3 -2.1L-8.4 -10.5L0 -5.6L8.4 -10.5L13.3 -2.1Z" transform="translate(926 478)"></path><path d="M4.9 2.8L4.9 12.5L-4.9 12.5L-4.9 2.8L-13.3 -2.1L-8.4 -10.5L0 -5.6L8.4 -10.5L13.3 -2.1Z" transform="translate(1611 506)"></path><path d="M5.1 3L5.1 13.2L-5.1 13.2L-5.1 3L-14 -2.2L-8.9 -11L0 -5.9L8.9 -11L14 -2.2Z" transform="translate(1694 619)"></path><path d="M3.8 2.2L3.8 9.7L-3.8 9.7L-3.8 2.2L-10.3 -1.6L-6.5 -8.1L0 -4.4L6.5 -8.1L10.3 -1.6Z" transform="translate(969 979)"></path><path d="M5.9 3.4L5.9 15.3L-5.9 15.3L-5.9 3.4L-16.2 -2.5L-10.3 -12.8L0 -6.9L10.3 -12.8L16.2 -2.5Z" transform="translate(777 579)"></path><path d="M4.9 2.8L4.9 12.5L-4.9 12.5L-4.9 2.8L-13.3 -2.1L-8.4 -10.5L0 -5.6L8.4 -10.5L13.3 -2.1Z" transform="translate(1713 295)"></path><path d="M3.8 2.2L3.8 9.7L-3.8 9.7L-3.8 2.2L-10.3 -1.6L-6.5 -8.1L0 -4.4L6.5 -8.1L10.3 -1.6Z" transform="translate(814 279)"></path><path d="M5.4 3.1L5.4 13.9L-5.4 13.9L-5.4 3.1L-14.7 -2.3L-9.3 -11.6L0 -6.2L9.3 -11.6L14.7 -2.3Z" transform="translate(1256 800)"></path><path d="M4.3 2.5L4.3 11.1L-4.3 11.1L-4.3 2.5L-11.8 -1.8L-7.5 -9.3L0 -5L7.5 -9.3L11.8 -1.8Z" transform="translate(785 72)"></path><path d="M4.9 2.8L4.9 12.5L-4.9 12.5L-4.9 2.8L-13.3 -2.1L-8.4 -10.5L0 -5.6L8.4 -10.5L13.3 -2.1Z" transform="translate(148 632)"></path><path d="M5.1 3L5.1 13.2L-5.1 13.2L-5.1 3L-14 -2.2L-8.9 -11L0 -5.9L8.9 -11L14 -2.2Z" transform="translate(1534 10)"></path><path d="M4 2.3L4 10.4L-4 10.4L-4 2.3L-11.1 -1.7L-7 -8.7L0 -4.7L7 -8.7L11.1 -1.7Z" transform="translate(1657 473)"></path><path d="M4.9 2.8L4.9 12.5L-4.9 12.5L-4.9 2.8L-13.3 -2.1L-8.4 -10.5L0 -5.6L8.4 -10.5L13.3 -2.1Z" transform="translate(686 171)"></path><path d="M4.3 2.5L4.3 11.1L-4.3 11.1L-4.3 2.5L-11.8 -1.8L-7.5 -9.3L0 -5L7.5 -9.3L11.8 -1.8Z" transform="translate(949 636)"></path><path d="M3.8 2.2L3.8 9.7L-3.8 9.7L-3.8 2.2L-10.3 -1.6L-6.5 -8.1L0 -4.4L6.5 -8.1L10.3 -1.6Z" transform="translate(1229 954)"></path><path d="M4.6 2.6L4.6 11.8L-4.6 11.8L-4.6 2.6L-12.5 -1.9L-7.9 -9.9L0 -5.3L7.9 -9.9L12.5 -1.9Z" transform="translate(1391 349)"></path><path d="M6.5 3.7L6.5 16.7L-6.5 16.7L-6.5 3.7L-17.7 -2.7L-11.2 -14L0 -7.5L11.2 -14L17.7 -2.7Z" transform="translate(447 35)"></path><path d="M4.3 2.5L4.3 11.1L-4.3 11.1L-4.3 2.5L-11.8 -1.8L-7.5 -9.3L0 -5L7.5 -9.3L11.8 -1.8Z" transform="translate(465 502)"></path><path d="M4.3 2.5L4.3 11.1L-4.3 11.1L-4.3 2.5L-11.8 -1.8L-7.5 -9.3L0 -5L7.5 -9.3L11.8 -1.8Z" transform="translate(310 348)"></path><path d="M3.8 2.2L3.8 9.7L-3.8 9.7L-3.8 2.2L-10.3 -1.6L-6.5 -8.1L0 -4.4L6.5 -8.1L10.3 -1.6Z" transform="translate(1659 879)"></path><path d="M4.9 2.8L4.9 12.5L-4.9 12.5L-4.9 2.8L-13.3 -2.1L-8.4 -10.5L0 -5.6L8.4 -10.5L13.3 -2.1Z" transform="translate(1118 1050)"></path><path d="M5.1 3L5.1 13.2L-5.1 13.2L-5.1 3L-14 -2.2L-8.9 -11L0 -5.9L8.9 -11L14 -2.2Z" transform="translate(139 570)"></path><path d="M6.2 3.6L6.2 16L-6.2 16L-6.2 3.6L-17 -2.6L-10.8 -13.4L0 -7.2L10.8 -13.4L17 -2.6Z" transform="translate(636 558)"></path><path d="M6.5 3.7L6.5 16.7L-6.5 16.7L-6.5 3.7L-17.7 -2.7L-11.2 -14L0 -7.5L11.2 -14L17.7 -2.7Z" transform="translate(398 736)"></path><path d="M5.7 3.3L5.7 14.6L-5.7 14.6L-5.7 3.3L-15.5 -2.4L-9.8 -12.2L0 -6.5L9.8 -12.2L15.5 -2.4Z" transform="translate(1110 961)"></path><path d="M5.7 3.3L5.7 14.6L-5.7 14.6L-5.7 3.3L-15.5 -2.4L-9.8 -12.2L0 -6.5L9.8 -12.2L15.5 -2.4Z" transform="translate(263 70)"></path><path d="M4.6 2.6L4.6 11.8L-4.6 11.8L-4.6 2.6L-12.5 -1.9L-7.9 -9.9L0 -5.3L7.9 -9.9L12.5 -1.9Z" transform="translate(1723 130)"></path><path d="M4.6 2.6L4.6 11.8L-4.6 11.8L-4.6 2.6L-12.5 -1.9L-7.9 -9.9L0 -5.3L7.9 -9.9L12.5 -1.9Z" transform="translate(912 337)"></path><path d="M4.9 2.8L4.9 12.5L-4.9 12.5L-4.9 2.8L-13.3 -2.1L-8.4 -10.5L0 -5.6L8.4 -10.5L13.3 -2.1Z" transform="translate(1835 346)"></path><path d="M6.5 3.7L6.5 16.7L-6.5 16.7L-6.5 3.7L-17.7 -2.7L-11.2 -14L0 -7.5L11.2 -14L17.7 -2.7Z" transform="translate(1230 563)"></path><path d="M6.2 3.6L6.2 16L-6.2 16L-6.2 3.6L-17 -2.6L-10.8 -13.4L0 -7.2L10.8 -13.4L17 -2.6Z" transform="translate(1324 389)"></path><path d="M6.2 3.6L6.2 16L-6.2 16L-6.2 3.6L-17 -2.6L-10.8 -13.4L0 -7.2L10.8 -13.4L17 -2.6Z" transform="translate(1050 585)"></path><path d="M4 2.3L4 10.4L-4 10.4L-4 2.3L-11.1 -1.7L-7 -8.7L0 -4.7L7 -8.7L11.1 -1.7Z" transform="translate(274 598)"></path><path d="M4.9 2.8L4.9 12.5L-4.9 12.5L-4.9 2.8L-13.3 -2.1L-8.4 -10.5L0 -5.6L8.4 -10.5L13.3 -2.1Z" transform="translate(613 474)"></path><path d="M3.8 2.2L3.8 9.7L-3.8 9.7L-3.8 2.2L-10.3 -1.6L-6.5 -8.1L0 -4.4L6.5 -8.1L10.3 -1.6Z" transform="translate(1125 869)"></path><path d="M5.4 3.1L5.4 13.9L-5.4 13.9L-5.4 3.1L-14.7 -2.3L-9.3 -11.6L0 -6.2L9.3 -11.6L14.7 -2.3Z" transform="translate(1903 1019)"></path><path d="M6.2 3.6L6.2 16L-6.2 16L-6.2 3.6L-17 -2.6L-10.8 -13.4L0 -7.2L10.8 -13.4L17 -2.6Z" transform="translate(1619 655)"></path><path d="M5.7 3.3L5.7 14.6L-5.7 14.6L-5.7 3.3L-15.5 -2.4L-9.8 -12.2L0 -6.5L9.8 -12.2L15.5 -2.4Z" transform="translate(1151 435)"></path><path d="M6.5 3.7L6.5 16.7L-6.5 16.7L-6.5 3.7L-17.7 -2.7L-11.2 -14L0 -7.5L11.2 -14L17.7 -2.7Z" transform="translate(865 115)"></path><path d="M4.9 2.8L4.9 12.5L-4.9 12.5L-4.9 2.8L-13.3 -2.1L-8.4 -10.5L0 -5.6L8.4 -10.5L13.3 -2.1Z" transform="translate(140 348)"></path><path d="M5.4 3.1L5.4 13.9L-5.4 13.9L-5.4 3.1L-14.7 -2.3L-9.3 -11.6L0 -6.2L9.3 -11.6L14.7 -2.3Z" transform="translate(403 472)"></path><path d="M5.4 3.1L5.4 13.9L-5.4 13.9L-5.4 3.1L-14.7 -2.3L-9.3 -11.6L0 -6.2L9.3 -11.6L14.7 -2.3Z" transform="translate(620 15)"></path><path d="M5.9 3.4L5.9 15.3L-5.9 15.3L-5.9 3.4L-16.2 -2.5L-10.3 -12.8L0 -6.9L10.3 -12.8L16.2 -2.5Z" transform="translate(208 117)"></path><path d="M4.6 2.6L4.6 11.8L-4.6 11.8L-4.6 2.6L-12.5 -1.9L-7.9 -9.9L0 -5.3L7.9 -9.9L12.5 -1.9Z" transform="translate(1917 259)"></path><path d="M5.7 3.3L5.7 14.6L-5.7 14.6L-5.7 3.3L-15.5 -2.4L-9.8 -12.2L0 -6.5L9.8 -12.2L15.5 -2.4Z" transform="translate(661 1006)"></path><path d="M3.8 2.2L3.8 9.7L-3.8 9.7L-3.8 2.2L-10.3 -1.6L-6.5 -8.1L0 -4.4L6.5 -8.1L10.3 -1.6Z" transform="translate(17 437)"></path><path d="M5.1 3L5.1 13.2L-5.1 13.2L-5.1 3L-14 -2.2L-8.9 -11L0 -5.9L8.9 -11L14 -2.2Z" transform="translate(407 400)"></path><path d="M4.3 2.5L4.3 11.1L-4.3 11.1L-4.3 2.5L-11.8 -1.8L-7.5 -9.3L0 -5L7.5 -9.3L11.8 -1.8Z" transform="translate(1503 201)"></path><path d="M4.9 2.8L4.9 12.5L-4.9 12.5L-4.9 2.8L-13.3 -2.1L-8.4 -10.5L0 -5.6L8.4 -10.5L13.3 -2.1Z" transform="translate(1147 631)"></path><path d="M5.7 3.3L5.7 14.6L-5.7 14.6L-5.7 3.3L-15.5 -2.4L-9.8 -12.2L0 -6.5L9.8 -12.2L15.5 -2.4Z" transform="translate(1603 1012)"></path><path d="M4.6 2.6L4.6 11.8L-4.6 11.8L-4.6 2.6L-12.5 -1.9L-7.9 -9.9L0 -5.3L7.9 -9.9L12.5 -1.9Z" transform="translate(1858 471)"></path><path d="M4.6 2.6L4.6 11.8L-4.6 11.8L-4.6 2.6L-12.5 -1.9L-7.9 -9.9L0 -5.3L7.9 -9.9L12.5 -1.9Z" transform="translate(1476 468)"></path><path d="M5.4 3.1L5.4 13.9L-5.4 13.9L-5.4 3.1L-14.7 -2.3L-9.3 -11.6L0 -6.2L9.3 -11.6L14.7 -2.3Z" transform="translate(918 52)"></path><path d="M3.8 2.2L3.8 9.7L-3.8 9.7L-3.8 2.2L-10.3 -1.6L-6.5 -8.1L0 -4.4L6.5 -8.1L10.3 -1.6Z" transform="translate(1438 521)"></path><path d="M4.9 2.8L4.9 12.5L-4.9 12.5L-4.9 2.8L-13.3 -2.1L-8.4 -10.5L0 -5.6L8.4 -10.5L13.3 -2.1Z" transform="translate(242 890)"></path><path d="M6.5 3.7L6.5 16.7L-6.5 16.7L-6.5 3.7L-17.7 -2.7L-11.2 -14L0 -7.5L11.2 -14L17.7 -2.7Z" transform="translate(479 408)"></path><path d="M5.4 3.1L5.4 13.9L-5.4 13.9L-5.4 3.1L-14.7 -2.3L-9.3 -11.6L0 -6.2L9.3 -11.6L14.7 -2.3Z" transform="translate(1624 35)"></path><path d="M5.9 3.4L5.9 15.3L-5.9 15.3L-5.9 3.4L-16.2 -2.5L-10.3 -12.8L0 -6.9L10.3 -12.8L16.2 -2.5Z" transform="translate(1808 70)"></path><path d="M3.8 2.2L3.8 9.7L-3.8 9.7L-3.8 2.2L-10.3 -1.6L-6.5 -8.1L0 -4.4L6.5 -8.1L10.3 -1.6Z" transform="translate(571 242)"></path><path d="M6.5 3.7L6.5 16.7L-6.5 16.7L-6.5 3.7L-17.7 -2.7L-11.2 -14L0 -7.5L11.2 -14L17.7 -2.7Z" transform="translate(1909 569)"></path><path d="M5.4 3.1L5.4 13.9L-5.4 13.9L-5.4 3.1L-14.7 -2.3L-9.3 -11.6L0 -6.2L9.3 -11.6L14.7 -2.3Z" transform="translate(1413 8)"></path><path d="M3.8 2.2L3.8 9.7L-3.8 9.7L-3.8 2.2L-10.3 -1.6L-6.5 -8.1L0 -4.4L6.5 -8.1L10.3 -1.6Z" transform="translate(1242 373)"></path><path d="M6.2 3.6L6.2 16L-6.2 16L-6.2 3.6L-17 -2.6L-10.8 -13.4L0 -7.2L10.8 -13.4L17 -2.6Z" transform="translate(208 1070)"></path><path d="M3.8 2.2L3.8 9.7L-3.8 9.7L-3.8 2.2L-10.3 -1.6L-6.5 -8.1L0 -4.4L6.5 -8.1L10.3 -1.6Z" transform="translate(316 528)"></path><path d="M5.7 3.3L5.7 14.6L-5.7 14.6L-5.7 3.3L-15.5 -2.4L-9.8 -12.2L0 -6.5L9.8 -12.2L15.5 -2.4Z" transform="translate(1417 1055)"></path><path d="M4.6 2.6L4.6 11.8L-4.6 11.8L-4.6 2.6L-12.5 -1.9L-7.9 -9.9L0 -5.3L7.9 -9.9L12.5 -1.9Z" transform="translate(44 832)"></path><path d="M3.8 2.2L3.8 9.7L-3.8 9.7L-3.8 2.2L-10.3 -1.6L-6.5 -8.1L0 -4.4L6.5 -8.1L10.3 -1.6Z" transform="translate(173 297)"></path><path d="M4.6 2.6L4.6 11.8L-4.6 11.8L-4.6 2.6L-12.5 -1.9L-7.9 -9.9L0 -5.3L7.9 -9.9L12.5 -1.9Z" transform="translate(105 403)"></path><path d="M5.4 3.1L5.4 13.9L-5.4 13.9L-5.4 3.1L-14.7 -2.3L-9.3 -11.6L0 -6.2L9.3 -11.6L14.7 -2.3Z" transform="translate(1403 119)"></path><path d="M5.4 3.1L5.4 13.9L-5.4 13.9L-5.4 3.1L-14.7 -2.3L-9.3 -11.6L0 -6.2L9.3 -11.6L14.7 -2.3Z" transform="translate(394 44)"></path><path d="M4 2.3L4 10.4L-4 10.4L-4 2.3L-11.1 -1.7L-7 -8.7L0 -4.7L7 -8.7L11.1 -1.7Z" transform="translate(134 82)"></path><path d="M5.4 3.1L5.4 13.9L-5.4 13.9L-5.4 3.1L-14.7 -2.3L-9.3 -11.6L0 -6.2L9.3 -11.6L14.7 -2.3Z" transform="translate(136 205)"></path><path d="M6.2 3.6L6.2 16L-6.2 16L-6.2 3.6L-17 -2.6L-10.8 -13.4L0 -7.2L10.8 -13.4L17 -2.6Z" transform="translate(996 2)"></path><path d="M4.6 2.6L4.6 11.8L-4.6 11.8L-4.6 2.6L-12.5 -1.9L-7.9 -9.9L0 -5.3L7.9 -9.9L12.5 -1.9Z" transform="translate(1652 980)"></path><path d="M5.7 3.3L5.7 14.6L-5.7 14.6L-5.7 3.3L-15.5 -2.4L-9.8 -12.2L0 -6.5L9.8 -12.2L15.5 -2.4Z" transform="translate(1153 87)"></path><path d="M3.8 2.2L3.8 9.7L-3.8 9.7L-3.8 2.2L-10.3 -1.6L-6.5 -8.1L0 -4.4L6.5 -8.1L10.3 -1.6Z" transform="translate(568 844)"></path><path d="M5.9 3.4L5.9 15.3L-5.9 15.3L-5.9 3.4L-16.2 -2.5L-10.3 -12.8L0 -6.9L10.3 -12.8L16.2 -2.5Z" transform="translate(1078 79)"></path><path d="M3.8 2.2L3.8 9.7L-3.8 9.7L-3.8 2.2L-10.3 -1.6L-6.5 -8.1L0 -4.4L6.5 -8.1L10.3 -1.6Z" transform="translate(778 657)"></path><path d="M5.7 3.3L5.7 14.6L-5.7 14.6L-5.7 3.3L-15.5 -2.4L-9.8 -12.2L0 -6.5L9.8 -12.2L15.5 -2.4Z" transform="translate(1576 195)"></path><path d="M5.7 3.3L5.7 14.6L-5.7 14.6L-5.7 3.3L-15.5 -2.4L-9.8 -12.2L0 -6.5L9.8 -12.2L15.5 -2.4Z" transform="translate(1277 999)"></path><path d="M5.7 3.3L5.7 14.6L-5.7 14.6L-5.7 3.3L-15.5 -2.4L-9.8 -12.2L0 -6.5L9.8 -12.2L15.5 -2.4Z" transform="translate(923 911)"></path><path d="M4.3 2.5L4.3 11.1L-4.3 11.1L-4.3 2.5L-11.8 -1.8L-7.5 -9.3L0 -5L7.5 -9.3L11.8 -1.8Z" transform="translate(95 248)"></path><path d="M4 2.3L4 10.4L-4 10.4L-4 2.3L-11.1 -1.7L-7 -8.7L0 -4.7L7 -8.7L11.1 -1.7Z" transform="translate(1277 141)"></path><path d="M5.4 3.1L5.4 13.9L-5.4 13.9L-5.4 3.1L-14.7 -2.3L-9.3 -11.6L0 -6.2L9.3 -11.6L14.7 -2.3Z" transform="translate(329 121)"></path><path d="M4 2.3L4 10.4L-4 10.4L-4 2.3L-11.1 -1.7L-7 -8.7L0 -4.7L7 -8.7L11.1 -1.7Z" transform="translate(695 741)"></path><path d="M4 2.3L4 10.4L-4 10.4L-4 2.3L-11.1 -1.7L-7 -8.7L0 -4.7L7 -8.7L11.1 -1.7Z" transform="translate(403 124)"></path><path d="M5.9 3.4L5.9 15.3L-5.9 15.3L-5.9 3.4L-16.2 -2.5L-10.3 -12.8L0 -6.9L10.3 -12.8L16.2 -2.5Z" transform="translate(432 263)"></path><path d="M5.7 3.3L5.7 14.6L-5.7 14.6L-5.7 3.3L-15.5 -2.4L-9.8 -12.2L0 -6.5L9.8 -12.2L15.5 -2.4Z" transform="translate(666 468)"></path><path d="M4.9 2.8L4.9 12.5L-4.9 12.5L-4.9 2.8L-13.3 -2.1L-8.4 -10.5L0 -5.6L8.4 -10.5L13.3 -2.1Z" transform="translate(980 510)"></path><path d="M5.7 3.3L5.7 14.6L-5.7 14.6L-5.7 3.3L-15.5 -2.4L-9.8 -12.2L0 -6.5L9.8 -12.2L15.5 -2.4Z" transform="translate(1268 273)"></path><path d="M4 2.3L4 10.4L-4 10.4L-4 2.3L-11.1 -1.7L-7 -8.7L0 -4.7L7 -8.7L11.1 -1.7Z" transform="translate(1784 278)"></path><path d="M5.9 3.4L5.9 15.3L-5.9 15.3L-5.9 3.4L-16.2 -2.5L-10.3 -12.8L0 -6.9L10.3 -12.8L16.2 -2.5Z" transform="translate(70 1003)"></path><path d="M5.4 3.1L5.4 13.9L-5.4 13.9L-5.4 3.1L-14.7 -2.3L-9.3 -11.6L0 -6.2L9.3 -11.6L14.7 -2.3Z" transform="translate(140 942)"></path><path d="M5.7 3.3L5.7 14.6L-5.7 14.6L-5.7 3.3L-15.5 -2.4L-9.8 -12.2L0 -6.5L9.8 -12.2L15.5 -2.4Z" transform="translate(1091 260)"></path><path d="M6.5 3.7L6.5 16.7L-6.5 16.7L-6.5 3.7L-17.7 -2.7L-11.2 -14L0 -7.5L11.2 -14L17.7 -2.7Z" transform="translate(1187 13)"></path><path d="M5.9 3.4L5.9 15.3L-5.9 15.3L-5.9 3.4L-16.2 -2.5L-10.3 -12.8L0 -6.9L10.3 -12.8L16.2 -2.5Z" transform="translate(25 339)"></path><path d="M6.2 3.6L6.2 16L-6.2 16L-6.2 3.6L-17 -2.6L-10.8 -13.4L0 -7.2L10.8 -13.4L17 -2.6Z" transform="translate(452 105)"></path><path d="M4 2.3L4 10.4L-4 10.4L-4 2.3L-11.1 -1.7L-7 -8.7L0 -4.7L7 -8.7L11.1 -1.7Z" transform="translate(1439 888)"></path><path d="M3.8 2.2L3.8 9.7L-3.8 9.7L-3.8 2.2L-10.3 -1.6L-6.5 -8.1L0 -4.4L6.5 -8.1L10.3 -1.6Z" transform="translate(1607 711)"></path><path d="M5.1 3L5.1 13.2L-5.1 13.2L-5.1 3L-14 -2.2L-8.9 -11L0 -5.9L8.9 -11L14 -2.2Z" transform="translate(522 934)"></path><path d="M5.4 3.1L5.4 13.9L-5.4 13.9L-5.4 3.1L-14.7 -2.3L-9.3 -11.6L0 -6.2L9.3 -11.6L14.7 -2.3Z" transform="translate(911 768)"></path><path d="M5.9 3.4L5.9 15.3L-5.9 15.3L-5.9 3.4L-16.2 -2.5L-10.3 -12.8L0 -6.9L10.3 -12.8L16.2 -2.5Z" transform="translate(37 886)"></path><path d="M5.7 3.3L5.7 14.6L-5.7 14.6L-5.7 3.3L-15.5 -2.4L-9.8 -12.2L0 -6.5L9.8 -12.2L15.5 -2.4Z" transform="translate(330 47)"></path><path d="M4.3 2.5L4.3 11.1L-4.3 11.1L-4.3 2.5L-11.8 -1.8L-7.5 -9.3L0 -5L7.5 -9.3L11.8 -1.8Z" transform="translate(1714 416)"></path><path d="M6.5 3.7L6.5 16.7L-6.5 16.7L-6.5 3.7L-17.7 -2.7L-11.2 -14L0 -7.5L11.2 -14L17.7 -2.7Z" transform="translate(1080 201)"></path><path d="M5.9 3.4L5.9 15.3L-5.9 15.3L-5.9 3.4L-16.2 -2.5L-10.3 -12.8L0 -6.9L10.3 -12.8L16.2 -2.5Z" transform="translate(1025 258)"></path><path d="M5.4 3.1L5.4 13.9L-5.4 13.9L-5.4 3.1L-14.7 -2.3L-9.3 -11.6L0 -6.2L9.3 -11.6L14.7 -2.3Z" transform="translate(534 1015)"></path><path d="M5.9 3.4L5.9 15.3L-5.9 15.3L-5.9 3.4L-16.2 -2.5L-10.3 -12.8L0 -6.9L10.3 -12.8L16.2 -2.5Z" transform="translate(1551 705)"></path><path d="M4.3 2.5L4.3 11.1L-4.3 11.1L-4.3 2.5L-11.8 -1.8L-7.5 -9.3L0 -5L7.5 -9.3L11.8 -1.8Z" transform="translate(530 754)"></path><path d="M5.1 3L5.1 13.2L-5.1 13.2L-5.1 3L-14 -2.2L-8.9 -11L0 -5.9L8.9 -11L14 -2.2Z" transform="translate(803 946)"></path><path d="M3.8 2.2L3.8 9.7L-3.8 9.7L-3.8 2.2L-10.3 -1.6L-6.5 -8.1L0 -4.4L6.5 -8.1L10.3 -1.6Z" transform="translate(593 524)"></path><path d="M5.9 3.4L5.9 15.3L-5.9 15.3L-5.9 3.4L-16.2 -2.5L-10.3 -12.8L0 -6.9L10.3 -12.8L16.2 -2.5Z" transform="translate(921 205)"></path><path d="M4.3 2.5L4.3 11.1L-4.3 11.1L-4.3 2.5L-11.8 -1.8L-7.5 -9.3L0 -5L7.5 -9.3L11.8 -1.8Z" transform="translate(1379 561)"></path><path d="M5.4 3.1L5.4 13.9L-5.4 13.9L-5.4 3.1L-14.7 -2.3L-9.3 -11.6L0 -6.2L9.3 -11.6L14.7 -2.3Z" transform="translate(1356 836)"></path><path d="M6.2 3.6L6.2 16L-6.2 16L-6.2 3.6L-17 -2.6L-10.8 -13.4L0 -7.2L10.8 -13.4L17 -2.6Z" transform="translate(122 884)"></path><path d="M4 2.3L4 10.4L-4 10.4L-4 2.3L-11.1 -1.7L-7 -8.7L0 -4.7L7 -8.7L11.1 -1.7Z" transform="translate(53 48)"></path><path d="M5.1 3L5.1 13.2L-5.1 13.2L-5.1 3L-14 -2.2L-8.9 -11L0 -5.9L8.9 -11L14 -2.2Z" transform="translate(1477 837)"></path><path d="M6.5 3.7L6.5 16.7L-6.5 16.7L-6.5 3.7L-17.7 -2.7L-11.2 -14L0 -7.5L11.2 -14L17.7 -2.7Z" transform="translate(1208 64)"></path><path d="M6.5 3.7L6.5 16.7L-6.5 16.7L-6.5 3.7L-17.7 -2.7L-11.2 -14L0 -7.5L11.2 -14L17.7 -2.7Z" transform="translate(748 720)"></path><path d="M3.8 2.2L3.8 9.7L-3.8 9.7L-3.8 2.2L-10.3 -1.6L-6.5 -8.1L0 -4.4L6.5 -8.1L10.3 -1.6Z" transform="translate(1663 90)"></path><path d="M4 2.3L4 10.4L-4 10.4L-4 2.3L-11.1 -1.7L-7 -8.7L0 -4.7L7 -8.7L11.1 -1.7Z" transform="translate(355 920)"></path><path d="M5.9 3.4L5.9 15.3L-5.9 15.3L-5.9 3.4L-16.2 -2.5L-10.3 -12.8L0 -6.9L10.3 -12.8L16.2 -2.5Z" transform="translate(157 413)"></path><path d="M6.5 3.7L6.5 16.7L-6.5 16.7L-6.5 3.7L-17.7 -2.7L-11.2 -14L0 -7.5L11.2 -14L17.7 -2.7Z" transform="translate(1059 977)"></path><path d="M5.1 3L5.1 13.2L-5.1 13.2L-5.1 3L-14 -2.2L-8.9 -11L0 -5.9L8.9 -11L14 -2.2Z" transform="translate(818 1006)"></path><path d="M4.9 2.8L4.9 12.5L-4.9 12.5L-4.9 2.8L-13.3 -2.1L-8.4 -10.5L0 -5.6L8.4 -10.5L13.3 -2.1Z" transform="translate(707 677)"></path><path d="M5.4 3.1L5.4 13.9L-5.4 13.9L-5.4 3.1L-14.7 -2.3L-9.3 -11.6L0 -6.2L9.3 -11.6L14.7 -2.3Z" transform="translate(1780 196)"></path><path d="M4 2.3L4 10.4L-4 10.4L-4 2.3L-11.1 -1.7L-7 -8.7L0 -4.7L7 -8.7L11.1 -1.7Z" transform="translate(1848 588)"></path><path d="M4.9 2.8L4.9 12.5L-4.9 12.5L-4.9 2.8L-13.3 -2.1L-8.4 -10.5L0 -5.6L8.4 -10.5L13.3 -2.1Z" transform="translate(127 705)"></path><path d="M5.7 3.3L5.7 14.6L-5.7 14.6L-5.7 3.3L-15.5 -2.4L-9.8 -12.2L0 -6.5L9.8 -12.2L15.5 -2.4Z" transform="translate(160 18)"></path><path d="M5.7 3.3L5.7 14.6L-5.7 14.6L-5.7 3.3L-15.5 -2.4L-9.8 -12.2L0 -6.5L9.8 -12.2L15.5 -2.4Z" transform="translate(698 585)"></path><path d="M5.4 3.1L5.4 13.9L-5.4 13.9L-5.4 3.1L-14.7 -2.3L-9.3 -11.6L0 -6.2L9.3 -11.6L14.7 -2.3Z" transform="translate(250 1024)"></path><path d="M6.5 3.7L6.5 16.7L-6.5 16.7L-6.5 3.7L-17.7 -2.7L-11.2 -14L0 -7.5L11.2 -14L17.7 -2.7Z" transform="translate(271 789)"></path><path d="M6.5 3.7L6.5 16.7L-6.5 16.7L-6.5 3.7L-17.7 -2.7L-11.2 -14L0 -7.5L11.2 -14L17.7 -2.7Z" transform="translate(1333 224)"></path><path d="M4 2.3L4 10.4L-4 10.4L-4 2.3L-11.1 -1.7L-7 -8.7L0 -4.7L7 -8.7L11.1 -1.7Z" transform="translate(379 233)"></path><path d="M4 2.3L4 10.4L-4 10.4L-4 2.3L-11.1 -1.7L-7 -8.7L0 -4.7L7 -8.7L11.1 -1.7Z" transform="translate(189 911)"></path><path d="M6.5 3.7L6.5 16.7L-6.5 16.7L-6.5 3.7L-17.7 -2.7L-11.2 -14L0 -7.5L11.2 -14L17.7 -2.7Z" transform="translate(11 932)"></path><path d="M5.1 3L5.1 13.2L-5.1 13.2L-5.1 3L-14 -2.2L-8.9 -11L0 -5.9L8.9 -11L14 -2.2Z" transform="translate(591 307)"></path><path d="M6.2 3.6L6.2 16L-6.2 16L-6.2 3.6L-17 -2.6L-10.8 -13.4L0 -7.2L10.8 -13.4L17 -2.6Z" transform="translate(858 199)"></path><path d="M4.3 2.5L4.3 11.1L-4.3 11.1L-4.3 2.5L-11.8 -1.8L-7.5 -9.3L0 -5L7.5 -9.3L11.8 -1.8Z" transform="translate(1197 1040)"></path><path d="M4.3 2.5L4.3 11.1L-4.3 11.1L-4.3 2.5L-11.8 -1.8L-7.5 -9.3L0 -5L7.5 -9.3L11.8 -1.8Z" transform="translate(1000 327)"></path><path d="M5.4 3.1L5.4 13.9L-5.4 13.9L-5.4 3.1L-14.7 -2.3L-9.3 -11.6L0 -6.2L9.3 -11.6L14.7 -2.3Z" transform="translate(1238 878)"></path><path d="M3.8 2.2L3.8 9.7L-3.8 9.7L-3.8 2.2L-10.3 -1.6L-6.5 -8.1L0 -4.4L6.5 -8.1L10.3 -1.6Z" transform="translate(463 1000)"></path><path d="M4.3 2.5L4.3 11.1L-4.3 11.1L-4.3 2.5L-11.8 -1.8L-7.5 -9.3L0 -5L7.5 -9.3L11.8 -1.8Z" transform="translate(1159 991)"></path><path d="M4.6 2.6L4.6 11.8L-4.6 11.8L-4.6 2.6L-12.5 -1.9L-7.9 -9.9L0 -5.3L7.9 -9.9L12.5 -1.9Z" transform="translate(451 717)"></path><path d="M4 2.3L4 10.4L-4 10.4L-4 2.3L-11.1 -1.7L-7 -8.7L0 -4.7L7 -8.7L11.1 -1.7Z" transform="translate(40 260)"></path><path d="M4.9 2.8L4.9 12.5L-4.9 12.5L-4.9 2.8L-13.3 -2.1L-8.4 -10.5L0 -5.6L8.4 -10.5L13.3 -2.1Z" transform="translate(1000 698)"></path><path d="M5.7 3.3L5.7 14.6L-5.7 14.6L-5.7 3.3L-15.5 -2.4L-9.8 -12.2L0 -6.5L9.8 -12.2L15.5 -2.4Z" transform="translate(274 406)"></path><path d="M3.8 2.2L3.8 9.7L-3.8 9.7L-3.8 2.2L-10.3 -1.6L-6.5 -8.1L0 -4.4L6.5 -8.1L10.3 -1.6Z" transform="translate(1087 757)"></path><path d="M4.9 2.8L4.9 12.5L-4.9 12.5L-4.9 2.8L-13.3 -2.1L-8.4 -10.5L0 -5.6L8.4 -10.5L13.3 -2.1Z" transform="translate(451 363)"></path><path d="M4.6 2.6L4.6 11.8L-4.6 11.8L-4.6 2.6L-12.5 -1.9L-7.9 -9.9L0 -5.3L7.9 -9.9L12.5 -1.9Z" transform="translate(1699 553)"></path><path d="M5.4 3.1L5.4 13.9L-5.4 13.9L-5.4 3.1L-14.7 -2.3L-9.3 -11.6L0 -6.2L9.3 -11.6L14.7 -2.3Z" transform="translate(857 36)"></path><path d="M4.9 2.8L4.9 12.5L-4.9 12.5L-4.9 2.8L-13.3 -2.1L-8.4 -10.5L0 -5.6L8.4 -10.5L13.3 -2.1Z" transform="translate(1213 310)"></path><path d="M3.8 2.2L3.8 9.7L-3.8 9.7L-3.8 2.2L-10.3 -1.6L-6.5 -8.1L0 -4.4L6.5 -8.1L10.3 -1.6Z" transform="translate(578 724)"></path><path d="M5.1 3L5.1 13.2L-5.1 13.2L-5.1 3L-14 -2.2L-8.9 -11L0 -5.9L8.9 -11L14 -2.2Z" transform="translate(678 103)"></path><path d="M4.9 2.8L4.9 12.5L-4.9 12.5L-4.9 2.8L-13.3 -2.1L-8.4 -10.5L0 -5.6L8.4 -10.5L13.3 -2.1Z" transform="translate(253 311)"></path><path d="M4.3 2.5L4.3 11.1L-4.3 11.1L-4.3 2.5L-11.8 -1.8L-7.5 -9.3L0 -5L7.5 -9.3L11.8 -1.8Z" transform="translate(1440 756)"></path><path d="M6.5 3.7L6.5 16.7L-6.5 16.7L-6.5 3.7L-17.7 -2.7L-11.2 -14L0 -7.5L11.2 -14L17.7 -2.7Z" transform="translate(1759 364)"></path><path d="M6.5 3.7L6.5 16.7L-6.5 16.7L-6.5 3.7L-17.7 -2.7L-11.2 -14L0 -7.5L11.2 -14L17.7 -2.7Z" transform="translate(74 621)"></path><path d="M4.3 2.5L4.3 11.1L-4.3 11.1L-4.3 2.5L-11.8 -1.8L-7.5 -9.3L0 -5L7.5 -9.3L11.8 -1.8Z" transform="translate(1411 417)"></path><path d="M3.8 2.2L3.8 9.7L-3.8 9.7L-3.8 2.2L-10.3 -1.6L-6.5 -8.1L0 -4.4L6.5 -8.1L10.3 -1.6Z" transform="translate(583 990)"></path><path d="M3.8 2.2L3.8 9.7L-3.8 9.7L-3.8 2.2L-10.3 -1.6L-6.5 -8.1L0 -4.4L6.5 -8.1L10.3 -1.6Z" transform="translate(228 28)"></path><path d="M5.1 3L5.1 13.2L-5.1 13.2L-5.1 3L-14 -2.2L-8.9 -11L0 -5.9L8.9 -11L14 -2.2Z" transform="translate(1779 835)"></path><path d="M5.1 3L5.1 13.2L-5.1 13.2L-5.1 3L-14 -2.2L-8.9 -11L0 -5.9L8.9 -11L14 -2.2Z" transform="translate(577 601)"></path><path d="M6.2 3.6L6.2 16L-6.2 16L-6.2 3.6L-17 -2.6L-10.8 -13.4L0 -7.2L10.8 -13.4L17 -2.6Z" transform="translate(1170 907)"></path><path d="M4.6 2.6L4.6 11.8L-4.6 11.8L-4.6 2.6L-12.5 -1.9L-7.9 -9.9L0 -5.3L7.9 -9.9L12.5 -1.9Z" transform="translate(1782 2)"></path><path d="M4.9 2.8L4.9 12.5L-4.9 12.5L-4.9 2.8L-13.3 -2.1L-8.4 -10.5L0 -5.6L8.4 -10.5L13.3 -2.1Z" transform="translate(1724 984)"></path><path d="M3.8 2.2L3.8 9.7L-3.8 9.7L-3.8 2.2L-10.3 -1.6L-6.5 -8.1L0 -4.4L6.5 -8.1L10.3 -1.6Z" transform="translate(225 615)"></path><path d="M5.9 3.4L5.9 15.3L-5.9 15.3L-5.9 3.4L-16.2 -2.5L-10.3 -12.8L0 -6.9L10.3 -12.8L16.2 -2.5Z" transform="translate(605 402)"></path><path d="M6.2 3.6L6.2 16L-6.2 16L-6.2 3.6L-17 -2.6L-10.8 -13.4L0 -7.2L10.8 -13.4L17 -2.6Z" transform="translate(268 683)"></path><path d="M5.7 3.3L5.7 14.6L-5.7 14.6L-5.7 3.3L-15.5 -2.4L-9.8 -12.2L0 -6.5L9.8 -12.2L15.5 -2.4Z" transform="translate(1423 938)"></path><path d="M5.1 3L5.1 13.2L-5.1 13.2L-5.1 3L-14 -2.2L-8.9 -11L0 -5.9L8.9 -11L14 -2.2Z" transform="translate(1318 474)"></path><path d="M5.9 3.4L5.9 15.3L-5.9 15.3L-5.9 3.4L-16.2 -2.5L-10.3 -12.8L0 -6.9L10.3 -12.8L16.2 -2.5Z" transform="translate(205 248)"></path><path d="M4.9 2.8L4.9 12.5L-4.9 12.5L-4.9 2.8L-13.3 -2.1L-8.4 -10.5L0 -5.6L8.4 -10.5L13.3 -2.1Z" transform="translate(53 496)"></path><path d="M3.8 2.2L3.8 9.7L-3.8 9.7L-3.8 2.2L-10.3 -1.6L-6.5 -8.1L0 -4.4L6.5 -8.1L10.3 -1.6Z" transform="translate(1845 654)"></path><path d="M4.6 2.6L4.6 11.8L-4.6 11.8L-4.6 2.6L-12.5 -1.9L-7.9 -9.9L0 -5.3L7.9 -9.9L12.5 -1.9Z" transform="translate(1329 5)"></path><path d="M5.1 3L5.1 13.2L-5.1 13.2L-5.1 3L-14 -2.2L-8.9 -11L0 -5.9L8.9 -11L14 -2.2Z" transform="translate(1844 170)"></path><path d="M4 2.3L4 10.4L-4 10.4L-4 2.3L-11.1 -1.7L-7 -8.7L0 -4.7L7 -8.7L11.1 -1.7Z" transform="translate(242 746)"></path><path d="M5.9 3.4L5.9 15.3L-5.9 15.3L-5.9 3.4L-16.2 -2.5L-10.3 -12.8L0 -6.9L10.3 -12.8L16.2 -2.5Z" transform="translate(1878 68)"></path><path d="M4.9 2.8L4.9 12.5L-4.9 12.5L-4.9 2.8L-13.3 -2.1L-8.4 -10.5L0 -5.6L8.4 -10.5L13.3 -2.1Z" transform="translate(1280 427)"></path><path d="M4.3 2.5L4.3 11.1L-4.3 11.1L-4.3 2.5L-11.8 -1.8L-7.5 -9.3L0 -5L7.5 -9.3L11.8 -1.8Z" transform="translate(1052 886)"></path><path d="M4.3 2.5L4.3 11.1L-4.3 11.1L-4.3 2.5L-11.8 -1.8L-7.5 -9.3L0 -5L7.5 -9.3L11.8 -1.8Z" transform="translate(1444 200)"></path><path d="M5.1 3L5.1 13.2L-5.1 13.2L-5.1 3L-14 -2.2L-8.9 -11L0 -5.9L8.9 -11L14 -2.2Z" transform="translate(1553 956)"></path><path d="M5.4 3.1L5.4 13.9L-5.4 13.9L-5.4 3.1L-14.7 -2.3L-9.3 -11.6L0 -6.2L9.3 -11.6L14.7 -2.3Z" transform="translate(593 1052)"></path><path d="M6.2 3.6L6.2 16L-6.2 16L-6.2 3.6L-17 -2.6L-10.8 -13.4L0 -7.2L10.8 -13.4L17 -2.6Z" transform="translate(1389 55)"></path><path d="M5.1 3L5.1 13.2L-5.1 13.2L-5.1 3L-14 -2.2L-8.9 -11L0 -5.9L8.9 -11L14 -2.2Z" transform="translate(1197 654)"></path><path d="M4.3 2.5L4.3 11.1L-4.3 11.1L-4.3 2.5L-11.8 -1.8L-7.5 -9.3L0 -5L7.5 -9.3L11.8 -1.8Z" transform="translate(716 797)"></path><path d="M5.7 3.3L5.7 14.6L-5.7 14.6L-5.7 3.3L-15.5 -2.4L-9.8 -12.2L0 -6.5L9.8 -12.2L15.5 -2.4Z" transform="translate(998 211)"></path><path d="M3.8 2.2L3.8 9.7L-3.8 9.7L-3.8 2.2L-10.3 -1.6L-6.5 -8.1L0 -4.4L6.5 -8.1L10.3 -1.6Z" transform="translate(1635 137)"></path><path d="M5.7 3.3L5.7 14.6L-5.7 14.6L-5.7 3.3L-15.5 -2.4L-9.8 -12.2L0 -6.5L9.8 -12.2L15.5 -2.4Z" transform="translate(1446 575)"></path><path d="M6.2 3.6L6.2 16L-6.2 16L-6.2 3.6L-17 -2.6L-10.8 -13.4L0 -7.2L10.8 -13.4L17 -2.6Z" transform="translate(1147 301)"></path><path d="M4 2.3L4 10.4L-4 10.4L-4 2.3L-11.1 -1.7L-7 -8.7L0 -4.7L7 -8.7L11.1 -1.7Z" transform="translate(362 166)"></path><path d="M4 2.3L4 10.4L-4 10.4L-4 2.3L-11.1 -1.7L-7 -8.7L0 -4.7L7 -8.7L11.1 -1.7Z" transform="translate(1056 644)"></path><path d="M6.2 3.6L6.2 16L-6.2 16L-6.2 3.6L-17 -2.6L-10.8 -13.4L0 -7.2L10.8 -13.4L17 -2.6Z" transform="translate(965 875)"></path><path d="M4 2.3L4 10.4L-4 10.4L-4 2.3L-11.1 -1.7L-7 -8.7L0 -4.7L7 -8.7L11.1 -1.7Z" transform="translate(1915 199)"></path><path d="M6.5 3.7L6.5 16.7L-6.5 16.7L-6.5 3.7L-17.7 -2.7L-11.2 -14L0 -7.5L11.2 -14L17.7 -2.7Z" transform="translate(93 1075)"></path><path d="M3.8 2.2L3.8 9.7L-3.8 9.7L-3.8 2.2L-10.3 -1.6L-6.5 -8.1L0 -4.4L6.5 -8.1L10.3 -1.6Z" transform="translate(69 98)"></path><path d="M4 2.3L4 10.4L-4 10.4L-4 2.3L-11.1 -1.7L-7 -8.7L0 -4.7L7 -8.7L11.1 -1.7Z" transform="translate(1376 720)"></path><path d="M4.6 2.6L4.6 11.8L-4.6 11.8L-4.6 2.6L-12.5 -1.9L-7.9 -9.9L0 -5.3L7.9 -9.9L12.5 -1.9Z" transform="translate(96 455)"></path><path d="M5.9 3.4L5.9 15.3L-5.9 15.3L-5.9 3.4L-16.2 -2.5L-10.3 -12.8L0 -6.9L10.3 -12.8L16.2 -2.5Z" transform="translate(847 396)"></path><path d="M3.8 2.2L3.8 9.7L-3.8 9.7L-3.8 2.2L-10.3 -1.6L-6.5 -8.1L0 -4.4L6.5 -8.1L10.3 -1.6Z" transform="translate(582 670)"></path><path d="M4.9 2.8L4.9 12.5L-4.9 12.5L-4.9 2.8L-13.3 -2.1L-8.4 -10.5L0 -5.6L8.4 -10.5L13.3 -2.1Z" transform="translate(1569 866)"></path><path d="M5.4 3.1L5.4 13.9L-5.4 13.9L-5.4 3.1L-14.7 -2.3L-9.3 -11.6L0 -6.2L9.3 -11.6L14.7 -2.3Z" transform="translate(462 187)"></path><path d="M5.1 3L5.1 13.2L-5.1 13.2L-5.1 3L-14 -2.2L-8.9 -11L0 -5.9L8.9 -11L14 -2.2Z" transform="translate(1007 1017)"></path><path d="M4 2.3L4 10.4L-4 10.4L-4 2.3L-11.1 -1.7L-7 -8.7L0 -4.7L7 -8.7L11.1 -1.7Z" transform="translate(425 914)"></path><path d="M4.6 2.6L4.6 11.8L-4.6 11.8L-4.6 2.6L-12.5 -1.9L-7.9 -9.9L0 -5.3L7.9 -9.9L12.5 -1.9Z" transform="translate(1473 408)"></path><path d="M5.4 3.1L5.4 13.9L-5.4 13.9L-5.4 3.1L-14.7 -2.3L-9.3 -11.6L0 -6.2L9.3 -11.6L14.7 -2.3Z" transform="translate(363 783)"></path><path d="M5.7 3.3L5.7 14.6L-5.7 14.6L-5.7 3.3L-15.5 -2.4L-9.8 -12.2L0 -6.5L9.8 -12.2L15.5 -2.4Z" transform="translate(1317 309)"></path><path d="M5.4 3.1L5.4 13.9L-5.4 13.9L-5.4 3.1L-14.7 -2.3L-9.3 -11.6L0 -6.2L9.3 -11.6L14.7 -2.3Z" transform="translate(751 176)"></path><path d="M6.2 3.6L6.2 16L-6.2 16L-6.2 3.6L-17 -2.6L-10.8 -13.4L0 -7.2L10.8 -13.4L17 -2.6Z" transform="translate(790 797)"></path><path d="M3.8 2.2L3.8 9.7L-3.8 9.7L-3.8 2.2L-10.3 -1.6L-6.5 -8.1L0 -4.4L6.5 -8.1L10.3 -1.6Z" transform="translate(1785 563)"></path><path d="M5.4 3.1L5.4 13.9L-5.4 13.9L-5.4 3.1L-14.7 -2.3L-9.3 -11.6L0 -6.2L9.3 -11.6L14.7 -2.3Z" transform="translate(1327 968)"></path><path d="M5.7 3.3L5.7 14.6L-5.7 14.6L-5.7 3.3L-15.5 -2.4L-9.8 -12.2L0 -6.5L9.8 -12.2L15.5 -2.4Z" transform="translate(1911 768)"></path><path d="M6.2 3.6L6.2 16L-6.2 16L-6.2 3.6L-17 -2.6L-10.8 -13.4L0 -7.2L10.8 -13.4L17 -2.6Z" transform="translate(1364 890)"></path><path d="M4.9 2.8L4.9 12.5L-4.9 12.5L-4.9 2.8L-13.3 -2.1L-8.4 -10.5L0 -5.6L8.4 -10.5L13.3 -2.1Z" transform="translate(1257 33)"></path><path d="M5.1 3L5.1 13.2L-5.1 13.2L-5.1 3L-14 -2.2L-8.9 -11L0 -5.9L8.9 -11L14 -2.2Z" transform="translate(414 580)"></path><path d="M5.4 3.1L5.4 13.9L-5.4 13.9L-5.4 3.1L-14.7 -2.3L-9.3 -11.6L0 -6.2L9.3 -11.6L14.7 -2.3Z" transform="translate(383 347)"></path><path d="M3.8 2.2L3.8 9.7L-3.8 9.7L-3.8 2.2L-10.3 -1.6L-6.5 -8.1L0 -4.4L6.5 -8.1L10.3 -1.6Z" transform="translate(424 1078)"></path><path d="M5.9 3.4L5.9 15.3L-5.9 15.3L-5.9 3.4L-16.2 -2.5L-10.3 -12.8L0 -6.9L10.3 -12.8L16.2 -2.5Z" transform="translate(1398 790)"></path><path d="M6.2 3.6L6.2 16L-6.2 16L-6.2 3.6L-17 -2.6L-10.8 -13.4L0 -7.2L10.8 -13.4L17 -2.6Z" transform="translate(1595 285)"></path><path d="M4 2.3L4 10.4L-4 10.4L-4 2.3L-11.1 -1.7L-7 -8.7L0 -4.7L7 -8.7L11.1 -1.7Z" transform="translate(1678 674)"></path><path d="M6.5 3.7L6.5 16.7L-6.5 16.7L-6.5 3.7L-17.7 -2.7L-11.2 -14L0 -7.5L11.2 -14L17.7 -2.7Z" transform="translate(553 112)"></path><path d="M3.8 2.2L3.8 9.7L-3.8 9.7L-3.8 2.2L-10.3 -1.6L-6.5 -8.1L0 -4.4L6.5 -8.1L10.3 -1.6Z" transform="translate(103 36)"></path><path d="M6.2 3.6L6.2 16L-6.2 16L-6.2 3.6L-17 -2.6L-10.8 -13.4L0 -7.2L10.8 -13.4L17 -2.6Z" transform="translate(1313 721)"></path><path d="M5.7 3.3L5.7 14.6L-5.7 14.6L-5.7 3.3L-15.5 -2.4L-9.8 -12.2L0 -6.5L9.8 -12.2L15.5 -2.4Z" transform="translate(9 556)"></path><path d="M6.2 3.6L6.2 16L-6.2 16L-6.2 3.6L-17 -2.6L-10.8 -13.4L0 -7.2L10.8 -13.4L17 -2.6Z" transform="translate(276 142)"></path><path d="M5.4 3.1L5.4 13.9L-5.4 13.9L-5.4 3.1L-14.7 -2.3L-9.3 -11.6L0 -6.2L9.3 -11.6L14.7 -2.3Z" transform="translate(200 350)"></path><path d="M5.7 3.3L5.7 14.6L-5.7 14.6L-5.7 3.3L-15.5 -2.4L-9.8 -12.2L0 -6.5L9.8 -12.2L15.5 -2.4Z" transform="translate(353 417)"></path><path d="M4.9 2.8L4.9 12.5L-4.9 12.5L-4.9 2.8L-13.3 -2.1L-8.4 -10.5L0 -5.6L8.4 -10.5L13.3 -2.1Z" transform="translate(1498 714)"></path><path d="M6.2 3.6L6.2 16L-6.2 16L-6.2 3.6L-17 -2.6L-10.8 -13.4L0 -7.2L10.8 -13.4L17 -2.6Z" transform="translate(1637 189)"></path><path d="M5.7 3.3L5.7 14.6L-5.7 14.6L-5.7 3.3L-15.5 -2.4L-9.8 -12.2L0 -6.5L9.8 -12.2L15.5 -2.4Z" transform="translate(999 805)"></path><path d="M5.1 3L5.1 13.2L-5.1 13.2L-5.1 3L-14 -2.2L-8.9 -11L0 -5.9L8.9 -11L14 -2.2Z" transform="translate(1767 645)"></path><path d="M4.9 2.8L4.9 12.5L-4.9 12.5L-4.9 2.8L-13.3 -2.1L-8.4 -10.5L0 -5.6L8.4 -10.5L13.3 -2.1Z" transform="translate(166 811)"></path><path d="M5.4 3.1L5.4 13.9L-5.4 13.9L-5.4 3.1L-14.7 -2.3L-9.3 -11.6L0 -6.2L9.3 -11.6L14.7 -2.3Z" transform="translate(954 378)"></path><path d="M5.1 3L5.1 13.2L-5.1 13.2L-5.1 3L-14 -2.2L-8.9 -11L0 -5.9L8.9 -11L14 -2.2Z" transform="translate(1176 575)"></path><path d="M4 2.3L4 10.4L-4 10.4L-4 2.3L-11.1 -1.7L-7 -8.7L0 -4.7L7 -8.7L11.1 -1.7Z" transform="translate(79 929)"></path><path d="M6.2 3.6L6.2 16L-6.2 16L-6.2 3.6L-17 -2.6L-10.8 -13.4L0 -7.2L10.8 -13.4L17 -2.6Z" transform="translate(1471 13)"></path><path d="M4.3 2.5L4.3 11.1L-4.3 11.1L-4.3 2.5L-11.8 -1.8L-7.5 -9.3L0 -5L7.5 -9.3L11.8 -1.8Z" transform="translate(1581 119)"></path><path d="M5.9 3.4L5.9 15.3L-5.9 15.3L-5.9 3.4L-16.2 -2.5L-10.3 -12.8L0 -6.9L10.3 -12.8L16.2 -2.5Z" transform="translate(771 251)"></path><path d="M4.9 2.8L4.9 12.5L-4.9 12.5L-4.9 2.8L-13.3 -2.1L-8.4 -10.5L0 -5.6L8.4 -10.5L13.3 -2.1Z" transform="translate(119 510)"></path><path d="M5.9 3.4L5.9 15.3L-5.9 15.3L-5.9 3.4L-16.2 -2.5L-10.3 -12.8L0 -6.9L10.3 -12.8L16.2 -2.5Z" transform="translate(1169 375)"></path><path d="M4.9 2.8L4.9 12.5L-4.9 12.5L-4.9 2.8L-13.3 -2.1L-8.4 -10.5L0 -5.6L8.4 -10.5L13.3 -2.1Z" transform="translate(1356 1019)"></path><path d="M4.6 2.6L4.6 11.8L-4.6 11.8L-4.6 2.6L-12.5 -1.9L-7.9 -9.9L0 -5.3L7.9 -9.9L12.5 -1.9Z" transform="translate(1517 1049)"></path><path d="M6.2 3.6L6.2 16L-6.2 16L-6.2 3.6L-17 -2.6L-10.8 -13.4L0 -7.2L10.8 -13.4L17 -2.6Z" transform="translate(1888 426)"></path><path d="M4.3 2.5L4.3 11.1L-4.3 11.1L-4.3 2.5L-11.8 -1.8L-7.5 -9.3L0 -5L7.5 -9.3L11.8 -1.8Z" transform="translate(114 833)"></path><path d="M5.9 3.4L5.9 15.3L-5.9 15.3L-5.9 3.4L-16.2 -2.5L-10.3 -12.8L0 -6.9L10.3 -12.8L16.2 -2.5Z" transform="translate(849 342)"></path><path d="M6.2 3.6L6.2 16L-6.2 16L-6.2 3.6L-17 -2.6L-10.8 -13.4L0 -7.2L10.8 -13.4L17 -2.6Z" transform="translate(281 1074)"></path><path d="M4.9 2.8L4.9 12.5L-4.9 12.5L-4.9 2.8L-13.3 -2.1L-8.4 -10.5L0 -5.6L8.4 -10.5L13.3 -2.1Z" transform="translate(1546 480)"></path><path d="M4.9 2.8L4.9 12.5L-4.9 12.5L-4.9 2.8L-13.3 -2.1L-8.4 -10.5L0 -5.6L8.4 -10.5L13.3 -2.1Z" transform="translate(334 685)"></path><path d="M4.3 2.5L4.3 11.1L-4.3 11.1L-4.3 2.5L-11.8 -1.8L-7.5 -9.3L0 -5L7.5 -9.3L11.8 -1.8Z" transform="translate(1715 911)"></path><path d="M6.2 3.6L6.2 16L-6.2 16L-6.2 3.6L-17 -2.6L-10.8 -13.4L0 -7.2L10.8 -13.4L17 -2.6Z" transform="translate(1084 476)"></path><path d="M3.8 2.2L3.8 9.7L-3.8 9.7L-3.8 2.2L-10.3 -1.6L-6.5 -8.1L0 -4.4L6.5 -8.1L10.3 -1.6Z" transform="translate(1777 974)"></path><path d="M4.3 2.5L4.3 11.1L-4.3 11.1L-4.3 2.5L-11.8 -1.8L-7.5 -9.3L0 -5L7.5 -9.3L11.8 -1.8Z" transform="translate(1355 1074)"></path><path d="M5.1 3L5.1 13.2L-5.1 13.2L-5.1 3L-14 -2.2L-8.9 -11L0 -5.9L8.9 -11L14 -2.2Z" transform="translate(522 618)"></path><path d="M3.8 2.2L3.8 9.7L-3.8 9.7L-3.8 2.2L-10.3 -1.6L-6.5 -8.1L0 -4.4L6.5 -8.1L10.3 -1.6Z" transform="translate(1284 547)"></path><path d="M4.3 2.5L4.3 11.1L-4.3 11.1L-4.3 2.5L-11.8 -1.8L-7.5 -9.3L0 -5L7.5 -9.3L11.8 -1.8Z" transform="translate(968 258)"></path><path d="M4 2.3L4 10.4L-4 10.4L-4 2.3L-11.1 -1.7L-7 -8.7L0 -4.7L7 -8.7L11.1 -1.7Z" transform="translate(714 993)"></path><path d="M6.2 3.6L6.2 16L-6.2 16L-6.2 3.6L-17 -2.6L-10.8 -13.4L0 -7.2L10.8 -13.4L17 -2.6Z" transform="translate(1456 642)"></path><path d="M4 2.3L4 10.4L-4 10.4L-4 2.3L-11.1 -1.7L-7 -8.7L0 -4.7L7 -8.7L11.1 -1.7Z" transform="translate(47 393)"></path><path d="M5.9 3.4L5.9 15.3L-5.9 15.3L-5.9 3.4L-16.2 -2.5L-10.3 -12.8L0 -6.9L10.3 -12.8L16.2 -2.5Z" transform="translate(1845 262)"></path><path d="M5.7 3.3L5.7 14.6L-5.7 14.6L-5.7 3.3L-15.5 -2.4L-9.8 -12.2L0 -6.5L9.8 -12.2L15.5 -2.4Z" transform="translate(1913 638)"></path><path d="M4 2.3L4 10.4L-4 10.4L-4 2.3L-11.1 -1.7L-7 -8.7L0 -4.7L7 -8.7L11.1 -1.7Z" transform="translate(51 717)"></path><path d="M4.3 2.5L4.3 11.1L-4.3 11.1L-4.3 2.5L-11.8 -1.8L-7.5 -9.3L0 -5L7.5 -9.3L11.8 -1.8Z" transform="translate(1908 837)"></path><path d="M4.9 2.8L4.9 12.5L-4.9 12.5L-4.9 2.8L-13.3 -2.1L-8.4 -10.5L0 -5.6L8.4 -10.5L13.3 -2.1Z" transform="translate(500 3)"></path><path d="M4.3 2.5L4.3 11.1L-4.3 11.1L-4.3 2.5L-11.8 -1.8L-7.5 -9.3L0 -5L7.5 -9.3L11.8 -1.8Z" transform="translate(878 656)"></path><path d="M4.6 2.6L4.6 11.8L-4.6 11.8L-4.6 2.6L-12.5 -1.9L-7.9 -9.9L0 -5.3L7.9 -9.9L12.5 -1.9Z" transform="translate(308 898)"></path><path d="M3.8 2.2L3.8 9.7L-3.8 9.7L-3.8 2.2L-10.3 -1.6L-6.5 -8.1L0 -4.4L6.5 -8.1L10.3 -1.6Z" transform="translate(1223 133)"></path><path d="M4.3 2.5L4.3 11.1L-4.3 11.1L-4.3 2.5L-11.8 -1.8L-7.5 -9.3L0 -5L7.5 -9.3L11.8 -1.8Z" transform="translate(1731 803)"></path><path d="M4.3 2.5L4.3 11.1L-4.3 11.1L-4.3 2.5L-11.8 -1.8L-7.5 -9.3L0 -5L7.5 -9.3L11.8 -1.8Z" transform="translate(1738 1060)"></path><path d="M5.9 3.4L5.9 15.3L-5.9 15.3L-5.9 3.4L-16.2 -2.5L-10.3 -12.8L0 -6.9L10.3 -12.8L16.2 -2.5Z" transform="translate(649 343)"></path><path d="M4.3 2.5L4.3 11.1L-4.3 11.1L-4.3 2.5L-11.8 -1.8L-7.5 -9.3L0 -5L7.5 -9.3L11.8 -1.8Z" transform="translate(567 173)"></path><path d="M5.7 3.3L5.7 14.6L-5.7 14.6L-5.7 3.3L-15.5 -2.4L-9.8 -12.2L0 -6.5L9.8 -12.2L15.5 -2.4Z" transform="translate(1265 692)"></path><path d="M4 2.3L4 10.4L-4 10.4L-4 2.3L-11.1 -1.7L-7 -8.7L0 -4.7L7 -8.7L11.1 -1.7Z" transform="translate(1449 1007)"></path><path d="M6.5 3.7L6.5 16.7L-6.5 16.7L-6.5 3.7L-17.7 -2.7L-11.2 -14L0 -7.5L11.2 -14L17.7 -2.7Z" transform="translate(1561 625)"></path><path d="M6.2 3.6L6.2 16L-6.2 16L-6.2 3.6L-17 -2.6L-10.8 -13.4L0 -7.2L10.8 -13.4L17 -2.6Z" transform="translate(1496 594)"></path><path d="M4.3 2.5L4.3 11.1L-4.3 11.1L-4.3 2.5L-11.8 -1.8L-7.5 -9.3L0 -5L7.5 -9.3L11.8 -1.8Z" transform="translate(831 445)"></path><path d="M5.1 3L5.1 13.2L-5.1 13.2L-5.1 3L-14 -2.2L-8.9 -11L0 -5.9L8.9 -11L14 -2.2Z" transform="translate(1670 241)"></path><path d="M3.8 2.2L3.8 9.7L-3.8 9.7L-3.8 2.2L-10.3 -1.6L-6.5 -8.1L0 -4.4L6.5 -8.1L10.3 -1.6Z" transform="translate(1548 310)"></path><path d="M6.5 3.7L6.5 16.7L-6.5 16.7L-6.5 3.7L-17.7 -2.7L-11.2 -14L0 -7.5L11.2 -14L17.7 -2.7Z" transform="translate(311 823)"></path><path d="M4.3 2.5L4.3 11.1L-4.3 11.1L-4.3 2.5L-11.8 -1.8L-7.5 -9.3L0 -5L7.5 -9.3L11.8 -1.8Z" transform="translate(511 448)"></path><path d="M4 2.3L4 10.4L-4 10.4L-4 2.3L-11.1 -1.7L-7 -8.7L0 -4.7L7 -8.7L11.1 -1.7Z" transform="translate(1852 857)"></path><path d="M4.3 2.5L4.3 11.1L-4.3 11.1L-4.3 2.5L-11.8 -1.8L-7.5 -9.3L0 -5L7.5 -9.3L11.8 -1.8Z" transform="translate(143 995)"></path><path d="M6.5 3.7L6.5 16.7L-6.5 16.7L-6.5 3.7L-17.7 -2.7L-11.2 -14L0 -7.5L11.2 -14L17.7 -2.7Z" transform="translate(80 189)"></path><path d="M5.4 3.1L5.4 13.9L-5.4 13.9L-5.4 3.1L-14.7 -2.3L-9.3 -11.6L0 -6.2L9.3 -11.6L14.7 -2.3Z" transform="translate(1841 27)"></path><path d="M5.7 3.3L5.7 14.6L-5.7 14.6L-5.7 3.3L-15.5 -2.4L-9.8 -12.2L0 -6.5L9.8 -12.2L15.5 -2.4Z" transform="translate(748 437)"></path><path d="M3.8 2.2L3.8 9.7L-3.8 9.7L-3.8 2.2L-10.3 -1.6L-6.5 -8.1L0 -4.4L6.5 -8.1L10.3 -1.6Z" transform="translate(8 773)"></path><path d="M6.2 3.6L6.2 16L-6.2 16L-6.2 3.6L-17 -2.6L-10.8 -13.4L0 -7.2L10.8 -13.4L17 -2.6Z" transform="translate(1196 198)"></path><path d="M5.9 3.4L5.9 15.3L-5.9 15.3L-5.9 3.4L-16.2 -2.5L-10.3 -12.8L0 -6.9L10.3 -12.8L16.2 -2.5Z" transform="translate(2 619)"></path><path d="M4.3 2.5L4.3 11.1L-4.3 11.1L-4.3 2.5L-11.8 -1.8L-7.5 -9.3L0 -5L7.5 -9.3L11.8 -1.8Z" transform="translate(915 145)"></path><path d="M5.4 3.1L5.4 13.9L-5.4 13.9L-5.4 3.1L-14.7 -2.3L-9.3 -11.6L0 -6.2L9.3 -11.6L14.7 -2.3Z" transform="translate(749 32)"></path><path d="M4.3 2.5L4.3 11.1L-4.3 11.1L-4.3 2.5L-11.8 -1.8L-7.5 -9.3L0 -5L7.5 -9.3L11.8 -1.8Z" transform="translate(604 804)"></path><path d="M6.2 3.6L6.2 16L-6.2 16L-6.2 3.6L-17 -2.6L-10.8 -13.4L0 -7.2L10.8 -13.4L17 -2.6Z" transform="translate(224 823)"></path><path d="M5.9 3.4L5.9 15.3L-5.9 15.3L-5.9 3.4L-16.2 -2.5L-10.3 -12.8L0 -6.9L10.3 -12.8L16.2 -2.5Z" transform="translate(1202 420)"></path><path d="M5.7 3.3L5.7 14.6L-5.7 14.6L-5.7 3.3L-15.5 -2.4L-9.8 -12.2L0 -6.5L9.8 -12.2L15.5 -2.4Z" transform="translate(1023 446)"></path><path d="M5.7 3.3L5.7 14.6L-5.7 14.6L-5.7 3.3L-15.5 -2.4L-9.8 -12.2L0 -6.5L9.8 -12.2L15.5 -2.4Z" transform="translate(1623 776)"></path><path d="M3.8 2.2L3.8 9.7L-3.8 9.7L-3.8 2.2L-10.3 -1.6L-6.5 -8.1L0 -4.4L6.5 -8.1L10.3 -1.6Z" transform="translate(1791 1058)"></path><path d="M3.8 2.2L3.8 9.7L-3.8 9.7L-3.8 2.2L-10.3 -1.6L-6.5 -8.1L0 -4.4L6.5 -8.1L10.3 -1.6Z" transform="translate(1721 4)"></path><path d="M6.2 3.6L6.2 16L-6.2 16L-6.2 3.6L-17 -2.6L-10.8 -13.4L0 -7.2L10.8 -13.4L17 -2.6Z" transform="translate(1912 140)"></path><path d="M3.8 2.2L3.8 9.7L-3.8 9.7L-3.8 2.2L-10.3 -1.6L-6.5 -8.1L0 -4.4L6.5 -8.1L10.3 -1.6Z" transform="translate(288 4)"></path><path d="M4.9 2.8L4.9 12.5L-4.9 12.5L-4.9 2.8L-13.3 -2.1L-8.4 -10.5L0 -5.6L8.4 -10.5L13.3 -2.1Z" transform="translate(182 167)"></path><path d="M5.7 3.3L5.7 14.6L-5.7 14.6L-5.7 3.3L-15.5 -2.4L-9.8 -12.2L0 -6.5L9.8 -12.2L15.5 -2.4Z" transform="translate(1177 487)"></path><path d="M3.8 2.2L3.8 9.7L-3.8 9.7L-3.8 2.2L-10.3 -1.6L-6.5 -8.1L0 -4.4L6.5 -8.1L10.3 -1.6Z" transform="translate(1108 362)"></path><path d="M6.2 3.6L6.2 16L-6.2 16L-6.2 3.6L-17 -2.6L-10.8 -13.4L0 -7.2L10.8 -13.4L17 -2.6Z" transform="translate(329 215)"></path><path d="M5.9 3.4L5.9 15.3L-5.9 15.3L-5.9 3.4L-16.2 -2.5L-10.3 -12.8L0 -6.9L10.3 -12.8L16.2 -2.5Z" transform="translate(191 570)"></path><path d="M4.6 2.6L4.6 11.8L-4.6 11.8L-4.6 2.6L-12.5 -1.9L-7.9 -9.9L0 -5.3L7.9 -9.9L12.5 -1.9Z" transform="translate(901 851)"></path><path d="M5.7 3.3L5.7 14.6L-5.7 14.6L-5.7 3.3L-15.5 -2.4L-9.8 -12.2L0 -6.5L9.8 -12.2L15.5 -2.4Z" transform="translate(846 1058)"></path><path d="M5.1 3L5.1 13.2L-5.1 13.2L-5.1 3L-14 -2.2L-8.9 -11L0 -5.9L8.9 -11L14 -2.2Z" transform="translate(1157 745)"></path><path d="M6.5 3.7L6.5 16.7L-6.5 16.7L-6.5 3.7L-17.7 -2.7L-11.2 -14L0 -7.5L11.2 -14L17.7 -2.7Z" transform="translate(1738 250)"></path><path d="M4.3 2.5L4.3 11.1L-4.3 11.1L-4.3 2.5L-11.8 -1.8L-7.5 -9.3L0 -5L7.5 -9.3L11.8 -1.8Z" transform="translate(803 22)"></path><path d="M3.8 2.2L3.8 9.7L-3.8 9.7L-3.8 2.2L-10.3 -1.6L-6.5 -8.1L0 -4.4L6.5 -8.1L10.3 -1.6Z" transform="translate(1830 917)"></path><path d="M4.9 2.8L4.9 12.5L-4.9 12.5L-4.9 2.8L-13.3 -2.1L-8.4 -10.5L0 -5.6L8.4 -10.5L13.3 -2.1Z" transform="translate(798 739)"></path><path d="M6.5 3.7L6.5 16.7L-6.5 16.7L-6.5 3.7L-17.7 -2.7L-11.2 -14L0 -7.5L11.2 -14L17.7 -2.7Z" transform="translate(709 1051)"></path><path d="M6.2 3.6L6.2 16L-6.2 16L-6.2 3.6L-17 -2.6L-10.8 -13.4L0 -7.2L10.8 -13.4L17 -2.6Z" transform="translate(125 780)"></path><path d="M6.2 3.6L6.2 16L-6.2 16L-6.2 3.6L-17 -2.6L-10.8 -13.4L0 -7.2L10.8 -13.4L17 -2.6Z" transform="translate(381 535)"></path><path d="M4.6 2.6L4.6 11.8L-4.6 11.8L-4.6 2.6L-12.5 -1.9L-7.9 -9.9L0 -5.3L7.9 -9.9L12.5 -1.9Z" transform="translate(1789 129)"></path><path d="M6.2 3.6L6.2 16L-6.2 16L-6.2 3.6L-17 -2.6L-10.8 -13.4L0 -7.2L10.8 -13.4L17 -2.6Z" transform="translate(415 667)"></path><path d="M4.6 2.6L4.6 11.8L-4.6 11.8L-4.6 2.6L-12.5 -1.9L-7.9 -9.9L0 -5.3L7.9 -9.9L12.5 -1.9Z" transform="translate(1706 363)"></path><path d="M5.9 3.4L5.9 15.3L-5.9 15.3L-5.9 3.4L-16.2 -2.5L-10.3 -12.8L0 -6.9L10.3 -12.8L16.2 -2.5Z" transform="translate(18 2)"></path><path d="M4.3 2.5L4.3 11.1L-4.3 11.1L-4.3 2.5L-11.8 -1.8L-7.5 -9.3L0 -5L7.5 -9.3L11.8 -1.8Z" transform="translate(1003 639)"></path><path d="M4.6 2.6L4.6 11.8L-4.6 11.8L-4.6 2.6L-12.5 -1.9L-7.9 -9.9L0 -5.3L7.9 -9.9L12.5 -1.9Z" transform="translate(6 1008)"></path><path d="M6.2 3.6L6.2 16L-6.2 16L-6.2 3.6L-17 -2.6L-10.8 -13.4L0 -7.2L10.8 -13.4L17 -2.6Z" transform="translate(525 880)"></path><path d="M6.5 3.7L6.5 16.7L-6.5 16.7L-6.5 3.7L-17.7 -2.7L-11.2 -14L0 -7.5L11.2 -14L17.7 -2.7Z" transform="translate(1448 351)"></path><path d="M4.9 2.8L4.9 12.5L-4.9 12.5L-4.9 2.8L-13.3 -2.1L-8.4 -10.5L0 -5.6L8.4 -10.5L13.3 -2.1Z" transform="translate(1105 124)"></path><path d="M4.9 2.8L4.9 12.5L-4.9 12.5L-4.9 2.8L-13.3 -2.1L-8.4 -10.5L0 -5.6L8.4 -10.5L13.3 -2.1Z" transform="translate(1680 816)"></path><path d="M4 2.3L4 10.4L-4 10.4L-4 2.3L-11.1 -1.7L-7 -8.7L0 -4.7L7 -8.7L11.1 -1.7Z" transform="translate(1034 41)"></path><path d="M5.1 3L5.1 13.2L-5.1 13.2L-5.1 3L-14 -2.2L-8.9 -11L0 -5.9L8.9 -11L14 -2.2Z" transform="translate(988 1078)"></path><path d="M4.3 2.5L4.3 11.1L-4.3 11.1L-4.3 2.5L-11.8 -1.8L-7.5 -9.3L0 -5L7.5 -9.3L11.8 -1.8Z" transform="translate(942 6)"></path><path d="M4.3 2.5L4.3 11.1L-4.3 11.1L-4.3 2.5L-11.8 -1.8L-7.5 -9.3L0 -5L7.5 -9.3L11.8 -1.8Z" transform="translate(698 875)"></path><path d="M4.6 2.6L4.6 11.8L-4.6 11.8L-4.6 2.6L-12.5 -1.9L-7.9 -9.9L0 -5.3L7.9 -9.9L12.5 -1.9Z" transform="translate(84 674)"></path><path d="M6.2 3.6L6.2 16L-6.2 16L-6.2 3.6L-17 -2.6L-10.8 -13.4L0 -7.2L10.8 -13.4L17 -2.6Z" transform="translate(1731 745)"></path><path d="M5.7 3.3L5.7 14.6L-5.7 14.6L-5.7 3.3L-15.5 -2.4L-9.8 -12.2L0 -6.5L9.8 -12.2L15.5 -2.4Z" transform="translate(1403 249)"></path><path d="M5.9 3.4L5.9 15.3L-5.9 15.3L-5.9 3.4L-16.2 -2.5L-10.3 -12.8L0 -6.9L10.3 -12.8L16.2 -2.5Z" transform="translate(1212 256)"></path><path d="M4.6 2.6L4.6 11.8L-4.6 11.8L-4.6 2.6L-12.5 -1.9L-7.9 -9.9L0 -5.3L7.9 -9.9L12.5 -1.9Z" transform="translate(963 441)"></path><path d="M4.3 2.5L4.3 11.1L-4.3 11.1L-4.3 2.5L-11.8 -1.8L-7.5 -9.3L0 -5L7.5 -9.3L11.8 -1.8Z" transform="translate(1507 353)"></path><path d="M4.9 2.8L4.9 12.5L-4.9 12.5L-4.9 2.8L-13.3 -2.1L-8.4 -10.5L0 -5.6L8.4 -10.5L13.3 -2.1Z" transform="translate(806 886)"></path><path d="M3.8 2.2L3.8 9.7L-3.8 9.7L-3.8 2.2L-10.3 -1.6L-6.5 -8.1L0 -4.4L6.5 -8.1L10.3 -1.6Z" transform="translate(171 752)"></path><path d="M4.6 2.6L4.6 11.8L-4.6 11.8L-4.6 2.6L-12.5 -1.9L-7.9 -9.9L0 -5.3L7.9 -9.9L12.5 -1.9Z" transform="translate(1535 255)"></path><path d="M6.2 3.6L6.2 16L-6.2 16L-6.2 3.6L-17 -2.6L-10.8 -13.4L0 -7.2L10.8 -13.4L17 -2.6Z" transform="translate(721 232)"></path><path d="M5.9 3.4L5.9 15.3L-5.9 15.3L-5.9 3.4L-16.2 -2.5L-10.3 -12.8L0 -6.9L10.3 -12.8L16.2 -2.5Z" transform="translate(1347 520)"></path><path d="M5.4 3.1L5.4 13.9L-5.4 13.9L-5.4 3.1L-14.7 -2.3L-9.3 -11.6L0 -6.2L9.3 -11.6L14.7 -2.3Z" transform="translate(1309 802)"></path><path d="M5.9 3.4L5.9 15.3L-5.9 15.3L-5.9 3.4L-16.2 -2.5L-10.3 -12.8L0 -6.9L10.3 -12.8L16.2 -2.5Z" transform="translate(1737 589)"></path><path d="M4 2.3L4 10.4L-4 10.4L-4 2.3L-11.1 -1.7L-7 -8.7L0 -4.7L7 -8.7L11.1 -1.7Z" transform="translate(480 245)"></path><path d="M4 2.3L4 10.4L-4 10.4L-4 2.3L-11.1 -1.7L-7 -8.7L0 -4.7L7 -8.7L11.1 -1.7Z" transform="translate(1265 88)"></path><path d="M4 2.3L4 10.4L-4 10.4L-4 2.3L-11.1 -1.7L-7 -8.7L0 -4.7L7 -8.7L11.1 -1.7Z" transform="translate(274 497)"></path><path d="M4 2.3L4 10.4L-4 10.4L-4 2.3L-11.1 -1.7L-7 -8.7L0 -4.7L7 -8.7L11.1 -1.7Z" transform="translate(521 499)"></path><path d="M5.9 3.4L5.9 15.3L-5.9 15.3L-5.9 3.4L-16.2 -2.5L-10.3 -12.8L0 -6.9L10.3 -12.8L16.2 -2.5Z" transform="translate(641 280)"></path><path d="M5.1 3L5.1 13.2L-5.1 13.2L-5.1 3L-14 -2.2L-8.9 -11L0 -5.9L8.9 -11L14 -2.2Z" transform="translate(1108 585)"></path><path d="M5.1 3L5.1 13.2L-5.1 13.2L-5.1 3L-14 -2.2L-8.9 -11L0 -5.9L8.9 -11L14 -2.2Z" transform="translate(359 984)"></path><path d="M4.3 2.5L4.3 11.1L-4.3 11.1L-4.3 2.5L-11.8 -1.8L-7.5 -9.3L0 -5L7.5 -9.3L11.8 -1.8Z" transform="translate(476 1050)"></path><path d="M5.7 3.3L5.7 14.6L-5.7 14.6L-5.7 3.3L-15.5 -2.4L-9.8 -12.2L0 -6.5L9.8 -12.2L15.5 -2.4Z" transform="translate(184 68)"></path><path d="M5.4 3.1L5.4 13.9L-5.4 13.9L-5.4 3.1L-14.7 -2.3L-9.3 -11.6L0 -6.2L9.3 -11.6L14.7 -2.3Z" transform="translate(858 759)"></path><path d="M6.5 3.7L6.5 16.7L-6.5 16.7L-6.5 3.7L-17.7 -2.7L-11.2 -14L0 -7.5L11.2 -14L17.7 -2.7Z" transform="translate(1559 537)"></path><path d="M5.4 3.1L5.4 13.9L-5.4 13.9L-5.4 3.1L-14.7 -2.3L-9.3 -11.6L0 -6.2L9.3 -11.6L14.7 -2.3Z" transform="translate(958 115)"></path><path d="M5.9 3.4L5.9 15.3L-5.9 15.3L-5.9 3.4L-16.2 -2.5L-10.3 -12.8L0 -6.9L10.3 -12.8L16.2 -2.5Z" transform="translate(1679 37)"></path><path d="M6.2 3.6L6.2 16L-6.2 16L-6.2 3.6L-17 -2.6L-10.8 -13.4L0 -7.2L10.8 -13.4L17 -2.6Z" transform="translate(730 626)"></path><path d="M5.4 3.1L5.4 13.9L-5.4 13.9L-5.4 3.1L-14.7 -2.3L-9.3 -11.6L0 -6.2L9.3 -11.6L14.7 -2.3Z" transform="translate(1616 1062)"></path><path d="M5.1 3L5.1 13.2L-5.1 13.2L-5.1 3L-14 -2.2L-8.9 -11L0 -5.9L8.9 -11L14 -2.2Z" transform="translate(1863 744)"></path><path d="M3.8 2.2L3.8 9.7L-3.8 9.7L-3.8 2.2L-10.3 -1.6L-6.5 -8.1L0 -4.4L6.5 -8.1L10.3 -1.6Z" transform="translate(649 892)"></path><path d="M4 2.3L4 10.4L-4 10.4L-4 2.3L-11.1 -1.7L-7 -8.7L0 -4.7L7 -8.7L11.1 -1.7Z" transform="translate(1914 1074)"></path><path d="M4.6 2.6L4.6 11.8L-4.6 11.8L-4.6 2.6L-12.5 -1.9L-7.9 -9.9L0 -5.3L7.9 -9.9L12.5 -1.9Z" transform="translate(1175 850)"></path><path d="M5.9 3.4L5.9 15.3L-5.9 15.3L-5.9 3.4L-16.2 -2.5L-10.3 -12.8L0 -6.9L10.3 -12.8L16.2 -2.5Z" transform="translate(480 767)"></path><path d="M6.5 3.7L6.5 16.7L-6.5 16.7L-6.5 3.7L-17.7 -2.7L-11.2 -14L0 -7.5L11.2 -14L17.7 -2.7Z" transform="translate(829 562)"></path><path d="M5.7 3.3L5.7 14.6L-5.7 14.6L-5.7 3.3L-15.5 -2.4L-9.8 -12.2L0 -6.5L9.8 -12.2L15.5 -2.4Z" transform="translate(626 953)"></path><path d="M6.2 3.6L6.2 16L-6.2 16L-6.2 3.6L-17 -2.6L-10.8 -13.4L0 -7.2L10.8 -13.4L17 -2.6Z" transform="translate(873 296)"></path><path d="M5.1 3L5.1 13.2L-5.1 13.2L-5.1 3L-14 -2.2L-8.9 -11L0 -5.9L8.9 -11L14 -2.2Z" transform="translate(981 749)"></path><path d="M4 2.3L4 10.4L-4 10.4L-4 2.3L-11.1 -1.7L-7 -8.7L0 -4.7L7 -8.7L11.1 -1.7Z" transform="translate(1 58)"></path><path d="M4 2.3L4 10.4L-4 10.4L-4 2.3L-11.1 -1.7L-7 -8.7L0 -4.7L7 -8.7L11.1 -1.7Z" transform="translate(1640 549)"></path></g></svg>